<svg width="40" height="40" fill="none" xmlns="http://www.w3.org/2000/svg"><path d="M39.219 34.688h-1.563V4.375a.781.781 0 00-.781-.781H31.12V.78a.781.781 0 00-.782-.78H9.662a.781.781 0 00-.78.781v2.813H3.124a.781.781 0 00-.781.781v30.313H.78a.781.781 0 00-.781.78v3.75c0 .432.35.782.781.782h15.704a.781.781 0 000-1.563H1.563V36.25h36.874v2.188h-14.92a.781.781 0 000 1.562H39.22c.431 0 .781-.35.781-.781v-3.75a.781.781 0 00-.781-.782zM10.443 1.562h19.114v2.032H10.443V1.563zm8.776 33.126h-4.063V30a4.85 4.85 0 014.063-4.78v9.468zm1.562 0V25.22A4.85 4.85 0 0124.844 30v4.688H20.78zm5.625 0V30A6.413 6.413 0 0020 23.594 6.413 6.413 0 0013.594 30v4.688H3.906V5.155h32.188v29.532h-9.688z" fill="#000"/><path d="M10.625 8.594h-3.75a.781.781 0 00-.781.781v3.75c0 .431.35.781.781.781h3.75c.431 0 .781-.35.781-.781v-3.75a.781.781 0 00-.781-.781zm-.781 3.75H7.656v-2.188h2.188v2.188zm8.281-3.75h-3.75a.781.781 0 00-.781.781v3.75c0 .431.35.781.781.781h3.75c.431 0 .781-.35.781-.781v-3.75a.781.781 0 00-.781-.781zm-.781 3.75h-2.188v-2.188h2.188v2.188zm8.281-3.75h-3.75a.781.781 0 00-.781.781v3.75c0 .431.35.781.781.781h3.75c.431 0 .781-.35.781-.781v-3.75a.781.781 0 00-.781-.781zm-.781 3.75h-2.188v-2.188h2.188v2.188zm8.281-3.75h-3.75a.781.781 0 00-.781.781v3.75c0 .431.35.781.781.781h3.75c.431 0 .781-.35.781-.781v-3.75a.781.781 0 00-.781-.781zm-.781 3.75h-2.188v-2.188h2.188v2.188zm-21.719 3.75h-3.75a.781.781 0 00-.781.781v3.75c0 .431.35.781.781.781h3.75c.431 0 .781-.35.781-.781v-3.75a.781.781 0 00-.781-.781zm-.781 3.75H7.656v-2.188h2.188v2.188zm8.281-3.75h-3.75a.781.781 0 00-.781.781v3.75c0 .431.35.781.781.781h3.75c.431 0 .781-.35.781-.781v-3.75a.781.781 0 00-.781-.781zm-.781 3.75h-2.188v-2.188h2.188v2.188zm8.281-3.75h-3.75a.781.781 0 00-.781.781v3.75c0 .431.35.781.781.781h3.75c.431 0 .781-.35.781-.781v-3.75a.781.781 0 00-.781-.781zm-.781 3.75h-2.188v-2.188h2.188v2.188zm8.281-3.75h-3.75a.781.781 0 00-.781.781v3.75c0 .431.35.781.781.781h3.75c.431 0 .781-.35.781-.781v-3.75a.781.781 0 00-.781-.781zm-.781 3.75h-2.188v-2.188h2.188v2.188zm-21.719 3.75h-3.75a.781.781 0 00-.781.781v3.75c0 .431.35.781.781.781h3.75c.431 0 .781-.35.781-.781v-3.75a.781.781 0 00-.781-.781zm-.781 3.75H7.656v-2.188h2.188v2.188zm23.281-3.75h-3.75a.781.781 0 00-.781.781v3.75c0 .431.35.781.781.781h3.75c.431 0 .781-.35.781-.781v-3.75a.781.781 0 00-.781-.781zm-.781 3.75h-2.188v-2.188h2.188v2.188zM20 38.438a.787.787 0 00-.552.228.787.787 0 00-.23.553A.787.787 0 0020 40a.787.787 0 00.553-.229.787.787 0 00.23-.552.787.787 0 00-.23-.553.787.787 0 00-.552-.228z" fill="#000"/></svg>