<svg width="40" height="40" fill="none" xmlns="http://www.w3.org/2000/svg"><path d="M34.337 18.013l-1.688-.993c-.05-.204-.105-.406-.165-.605l1.2-1.817a.667.667 0 00.05-.647 14.63 14.63 0 00-1.526-2.57.68.68 0 00-.568-.269l-2.237.11c-.14-.144-.284-.285-.43-.422l.111-2.167a.666.666 0 00-.281-.58 15.191 15.191 0 00-2.627-1.486.665.665 0 00-.624.046l-1.875 1.18c-.203-.058-.41-.112-.62-.16l-1.02-1.942a.667.667 0 00-.59-.356h-2.893a.667.667 0 00-.59.356l-1.02 1.941c-.21.05-.416.103-.62.162l-1.875-1.181a.665.665 0 00-.623-.047 15.15 15.15 0 00-2.628 1.488.666.666 0 00-.282.579l.112 2.167a12.5 12.5 0 00-.43.421l-2.238-.11a.696.696 0 00-.569.27 14.755 14.755 0 00-1.525 2.57.667.667 0 00.05.646l1.2 1.818c-.06.2-.115.401-.165.605l-1.687.992a.666.666 0 00-.33.575v2.826c0 .236.126.455.33.575l1.687.992c.05.203.105.405.165.605l-1.2 1.816a.667.667 0 00-.05.647c.42.907.93 1.768 1.526 2.57a.684.684 0 00.568.27l2.237-.11c.14.144.284.285.43.422l-.111 2.166a.666.666 0 00.282.58c.824.582 1.704 1.08 2.626 1.487.203.09.437.072.624-.046l1.875-1.18c.203.057.41.111.62.16l1.02 1.942a.667.667 0 00.59.356h2.894a.667.667 0 00.59-.356l1.02-1.941c.208-.05.415-.103.62-.162l1.874 1.181a.667.667 0 00.624.047 15.15 15.15 0 002.628-1.488.666.666 0 00.28-.579l-.111-2.167c.147-.137.29-.278.43-.422l2.238.11a.673.673 0 00.569-.27 14.709 14.709 0 001.525-2.57.667.667 0 00-.049-.646l-1.2-1.817c.06-.2.114-.401.164-.605l1.688-.992a.666.666 0 00.328-.575v-2.826a.666.666 0 00-.328-.574zm-1.005 3.019l-1.605.944a.666.666 0 00-.313.431c-.08.364-.18.725-.293 1.074a.667.667 0 00.077.574l1.166 1.767a13.325 13.325 0 01-1.02 1.717l-2.18-.107a.696.696 0 00-.522.212c-.252.27-.518.532-.794.777a.666.666 0 00-.224.532l.109 2.11a13.84 13.84 0 01-1.776 1.005l-1.826-1.151a.664.664 0 00-.554-.072c-.359.112-.73.208-1.103.287a.665.665 0 00-.453.342l-.977 1.858h-2.088l-.977-1.858a.667.667 0 00-.453-.342c-.376-.08-.747-.176-1.102-.287a.663.663 0 00-.555.072l-1.827 1.15a13.876 13.876 0 01-1.776-1.005l.11-2.109a.667.667 0 00-.224-.533 11.581 11.581 0 01-.795-.776.682.682 0 00-.52-.213l-2.18.107a13.265 13.265 0 01-1.022-1.716l1.167-1.766a.666.666 0 00.077-.575c-.114-.349-.213-.71-.293-1.074a.666.666 0 00-.313-.431l-1.605-.944v-2.064l1.605-.944a.666.666 0 00.313-.431c.08-.364.18-.725.293-1.074a.667.667 0 00-.077-.574l-1.166-1.767a13.5 13.5 0 011.02-1.717l2.18.107a.664.664 0 00.522-.212c.251-.27.518-.532.794-.777a.666.666 0 00.224-.532l-.109-2.11c.566-.378 1.16-.714 1.776-1.005l1.826 1.151c.165.105.368.13.554.072.359-.112.73-.208 1.103-.287a.665.665 0 00.453-.342l.977-1.858h2.088l.977 1.858a.667.667 0 00.453.342c.376.08.747.176 1.102.287a.67.67 0 00.555-.072l1.827-1.15c.616.29 1.21.626 1.776 1.004l-.11 2.11a.667.667 0 00.224.533c.275.244.543.505.795.777a.68.68 0 00.52.212l2.18-.107c.384.545.725 1.12 1.022 1.716l-1.167 1.766a.666.666 0 00-.077.575c.114.349.213.71.293 1.074.04.181.153.337.313.431l1.605.944v2.064z" fill="#000"/><path d="M20 10.001c-5.522 0-9.999 4.477-9.999 9.999S14.478 30 20 30s10-4.478 10-10c-.007-5.52-4.48-9.993-10-9.999zm0 18.665A8.666 8.666 0 1128.666 20 8.676 8.676 0 0120 28.666zM33.999 2.668v4h-4v1.333h4.666a.666.666 0 00.667-.666V2.668h-1.333zM5.335 31.999a.666.666 0 00-.667.666v4.667h1.333v-4h4V32H5.335z" fill="#000"/><path d="M3.45 8.776A20 20 0 00.002 20 19.894 19.894 0 003.45 31.23l1.103-.75C-1.234 21.947.993 10.34 9.525 4.553a18.667 18.667 0 0120.954 0l.75-1.103C22.087-2.75 9.65-.366 3.45 8.776zm33.231.19l-1.111.737c5.685 8.6 3.323 20.18-5.277 25.866a18.667 18.667 0 01-20.772-.122l-.75 1.103c9.142 6.2 21.58 3.815 27.78-5.327a20.001 20.001 0 00.13-22.257z" fill="#000"/></svg>