<svg width="50" height="50" fill="none" xmlns="http://www.w3.org/2000/svg"><g clip-path="url(#clip0)" fill="#fff"><path d="M39.994 25.381a.858.858 0 00-1.536.394l-.477 3.34a.83.83 0 01-.044.125 15.427 15.427 0 002.098-3.804l-.04-.055zm-2.864 4.47a.942.942 0 01-.12-.008l-5.1-.728a.858.858 0 01-.727-.972l.476-3.34a.858.858 0 00-1.364-.807l-2.699 2.023a.858.858 0 01-1.201-.171l-3.09-4.12a.858.858 0 01.171-1.203l2.698-2.023a.858.858 0 00-.394-1.536l-3.34-.478a.858.858 0 01-.728-.97v-.001l.729-5.098a.858.858 0 01.97-.73l.002.001 3.339.477a.853.853 0 00.858-.413.84.84 0 00-.051-.952l-2.022-2.698a.858.858 0 01.172-1.201l.486-.365a15.74 15.74 0 00-2.364.063c-8.478.968-14.566 8.626-13.598 17.105a15.451 15.451 0 007.021 11.26 4.922 4.922 0 012.328 4.123v3.469a2.575 2.575 0 002.576 2.575h6.867a2.575 2.575 0 002.575-2.575V37.16a5.057 5.057 0 012.378-4.225 15.557 15.557 0 003.582-3.21.858.858 0 01-.43.126zM26.45 40.558h-1.717v-2.575h1.717v2.575zm-1.717-4.292a5.48 5.48 0 00-3.52-5.116c-6.181-2.417-9.233-9.387-6.816-15.569a12.017 12.017 0 014.79-5.793l.91 1.452c-4.815 3.03-6.262 9.39-3.232 14.205a10.3 10.3 0 004.968 4.107 7.182 7.182 0 014.617 6.714h-1.717zm-2.575 11.159v.858c0 .948.768 1.717 1.716 1.717h3.434c.948 0 1.717-.769 1.717-1.717v-.858h-6.867z"/><path d="M16.791 33.69a16.24 16.24 0 01-1.467-1.072 5.135 5.135 0 01-9.702-2.361 5.155 5.155 0 014.511-5.107 16.343 16.343 0 01-.68-2.91l-.15.714a1.717 1.717 0 01-2.653 1.06L4.864 22.79 3.3 24.349l1.23 1.788a1.717 1.717 0 01-1.06 2.654l-2.14.45v2.04l2.14.45a1.717 1.717 0 011.059 2.656L3.3 36.164l1.564 1.56 1.784-1.228a1.717 1.717 0 012.654 1.06l.45 2.143h2.04l.45-2.14a1.717 1.717 0 012.654-1.06l1.783 1.226 1.842-1.841a4.19 4.19 0 00-1.73-2.194zm12.234 10.301h-6.867v1.717h6.867v-1.717zm17.999-29.193a2.575 2.575 0 01-1.18-4.61l2.011-1.508-2.06-2.747-2.011 1.508a2.575 2.575 0 01-4.096-2.42l.356-2.49-3.398-.485-.356 2.49a2.575 2.575 0 01-4.61 1.18L30.173 3.7l-2.747 2.06 1.508 2.011a2.575 2.575 0 01-2.425 4.095l-2.49-.356-.487 3.4 2.49.355a2.575 2.575 0 011.18 4.61l-2.01 1.509 2.06 2.746 2.01-1.508a2.575 2.575 0 014.095 2.425l-.355 2.49 3.406.487.355-2.49a2.575 2.575 0 014.61-1.18l1.509 2.01 2.747-2.06-1.514-2.014a2.575 2.575 0 012.422-4.094l2.49.355.484-3.398-2.486-.356zm-10.5 5.385a5.15 5.15 0 110-10.3 5.15 5.15 0 010 10.3zM47.91 31.974H41.9v1.716h6.01v-1.716zm-6.318 4.49l-1.1 1.32 5.152 4.29 1.099-1.319-5.151-4.29zm-3.125 2.376H36.75v6.01h1.717v-6.01zM7.356 13.115L.489 14.83l.416 1.665 6.867-1.717-.416-1.664zM2.912 4.666l-.997 1.396 6.008 4.292.998-1.396-6.009-4.292zM10.933 0L9.27.425l1.756 6.866 1.663-.425L10.933 0z"/></g><defs><clipPath id="clip0"><path fill="#fff" d="M0 0h50v50H0z"/></clipPath></defs></svg>