<svg width="120" height="120" fill="none" xmlns="http://www.w3.org/2000/svg"><g clip-path="url(#clip0)"><g opacity=".42"><path opacity=".42" d="M71.866 1097.6h-850.812V-10.558H71.866h-850.812v877.33H71.866V1097.6z" fill="#E6DE21"/><path opacity=".42" d="M71.875-10.558H-611.54V842.2H71.875V-10.56z" fill="url(#paint0_radial)"/></g><path d="M61.858 114.776c29.932 0 54.196-24.264 54.196-54.196S91.79 6.384 61.858 6.384c-29.931 0-54.196 24.264-54.196 54.196s24.265 54.196 54.197 54.196z" fill="#02763D"/><path d="M66.43 80.596v7.053H39.794a18.229 18.229 0 012.6-7.62c1.427-2.388 4.272-5.552 8.534-9.492 3.42-3.189 5.517-5.35 6.29-6.485a8.374 8.374 0 001.567-4.649 5.291 5.291 0 00-1.363-3.903 5.081 5.081 0 00-3.742-1.312 5.08 5.08 0 00-3.785 1.43c-.931.955-1.476 2.538-1.634 4.75l-7.57-.761c.45-4.175 1.863-7.18 4.234-8.992a14.242 14.242 0 018.915-2.735c3.912 0 6.983 1.056 9.212 3.167a10.355 10.355 0 013.387 7.857 13.64 13.64 0 01-.965 5.08 20.71 20.71 0 01-3.031 5.08 49.954 49.954 0 01-4.979 5.08c-2.387 2.19-3.903 3.646-4.547 4.369a13.68 13.68 0 00-1.557 2.108l15.07-.025zM84.389 47.88a10.837 10.837 0 019 4.106c2.574 3.246 3.86 8.622 3.86 16.13 0 7.507-1.295 12.891-3.886 16.154-2.15 2.698-5.142 4.05-8.974 4.056a11.348 11.348 0 01-9.314-4.445c-2.354-2.964-3.53-8.244-3.53-15.842 0-7.462 1.295-12.824 3.886-16.087 2.139-2.715 5.125-4.072 8.958-4.072zm0 6.299a3.75 3.75 0 00-2.456.847 5.926 5.926 0 00-1.693 3.14c-.525 1.965-.785 5.27-.779 9.916.006 4.645.24 7.837.703 9.576a6.689 6.689 0 001.77 3.47 3.886 3.886 0 004.893 0 5.85 5.85 0 001.693-3.149c.514-1.947.774-5.243.78-9.889.005-4.646-.23-7.837-.703-9.576a6.773 6.773 0 00-1.761-3.48 3.7 3.7 0 00-2.447-.846v-.009z" fill="#000" opacity=".5"/><path d="M59.268 70.994v7.053H32.623a18.34 18.34 0 012.59-7.62c1.44-2.36 4.285-5.515 8.535-9.466 3.42-3.19 5.52-5.351 6.3-6.486a8.374 8.374 0 001.6-4.631 5.302 5.302 0 00-1.364-3.903 5.122 5.122 0 00-3.776-1.363 5.028 5.028 0 00-3.776 1.43c-.96.938-1.513 2.535-1.66 4.793l-7.56-.762c.451-4.172 1.862-7.169 4.233-8.992a14.225 14.225 0 018.916-2.726c3.889-.023 6.962 1.033 9.22 3.166a10.382 10.382 0 013.387 7.857 13.63 13.63 0 01-.957 5.08 20.764 20.764 0 01-3.04 5.08 48.703 48.703 0 01-4.97 5.08c-2.421 2.151-3.948 3.588-4.58 4.31a13.25 13.25 0 00-1.558 2.1h15.105zm17.924-32.707a10.82 10.82 0 019 4.106c2.568 3.235 3.855 8.597 3.86 16.087.007 7.49-1.292 12.875-3.894 16.155-2.122 2.737-5.11 4.106-8.966 4.106a11.346 11.346 0 01-9.314-4.445c-2.353-2.975-3.53-8.266-3.53-15.875 0-7.456 1.298-12.819 3.894-16.087 2.134-2.698 5.117-4.047 8.95-4.047zm0 6.29a3.785 3.785 0 00-2.455.847 5.927 5.927 0 00-1.694 3.142c-.514 1.964-.773 5.269-.779 9.914-.005 4.646.229 7.84.703 9.585.474 1.693 1.058 2.887 1.77 3.463a3.87 3.87 0 004.902 0 5.927 5.927 0 001.693-3.15c.53-1.93.796-5.218.796-9.864 0-4.645-.24-7.837-.72-9.576a6.857 6.857 0 00-1.778-3.48 3.725 3.725 0 00-2.438-.88z" fill="#E6DE21"/></g><defs><radialGradient id="paint0_radial" cx="0" cy="0" r="1" gradientUnits="userSpaceOnUse" gradientTransform="matrix(1013.25 0 0 1007.8 -493.7 744.852)"><stop stop-color="#fff"/><stop offset=".08" stop-color="#fff"/><stop offset=".5" stop-color="#fff"/><stop offset="1" stop-color="#E5E3E3"/></radialGradient><clipPath id="clip0"><path fill="#fff" d="M0 0h120v120H0z"/></clipPath></defs></svg>