<svg width="120" height="120" fill="none" xmlns="http://www.w3.org/2000/svg"><path d="M59.158 114.361c29.931 0 54.196-24.264 54.196-54.196 0-29.931-24.265-54.196-54.196-54.196-29.932 0-54.196 24.264-54.196 54.196s24.264 54.196 54.196 54.196z" fill="#02763D"/><path d="M75.355 42.732c1.193 2.633 2.362 5.283 3.615 7.883a1.455 1.455 0 001.202.558 9.784 9.784 0 002.769-.71c3.056-1.415 4.233-.848 4.555.279.322 1.126.296 2.252-3.514 3.496a56.05 56.05 0 01-14.597 2.54l-2.1.127v8.493c1.516 0 3.049.05 4.564 0 .356 0 .745-.458 1.016-.788 1.897-2.32 3.76-4.673 5.648-6.993 1.388-1.694 2.607-1.694 3.996 0 4.081 5.08 8.15 10.137 12.21 15.172.643.847 1.455 1.592.905 2.794s-1.693 1.22-2.777 1.228c-1.084.008-2.684-.373-3.438.203-.753.576-.668 2.125-.922 3.251-2.329 10.16-9.195 16.206-19.618 17.374a30.48 30.48 0 1126.865-32.445c.161 2.134-.38 3.167-1.693 3.285-1.313.119-2.04-.745-2.252-3.04-1-10.54-6.274-18.025-15.91-22.495a5.698 5.698 0 00-.525-.212zM52.85 69.377c0 3.573.779 6.19 1.168 9.314.957-.11 1.626-.22 2.295-.255 3.53-.194 7.061-.414 10.592-.533 1.456 0 2.32.787 2.328 1.93.008 1.144-.914 1.982-2.438 1.956a63.028 63.028 0 00-19.093 2.447c-3.192 1.092-5.495 2.27-5.791 1.092-.297-1.176.194-3.2 4.724-4.893 1.194-.364 2.405-.678 3.522-.991-.431-3.463-.846-6.773-1.278-10.16h-10.16c-1.694 0-2.54-.678-2.591-1.922-.051-1.245.846-1.956 2.54-1.964h10.236l1.27-10.22c-.55-.135-1.16-.27-1.76-.432a16.853 16.853 0 01-1.99-.559c-4.319-1.693-3.904-2.785-3.599-3.852.305-1.067 1.363-1.168 4.674.093.983.351 1.998.607 3.03.762a1.21 1.21 0 001.017-.482c1.228-2.6 2.38-5.241 3.564-7.866-.296.11-.71.237-1.109.415-16.137 7.315-20.456 29.1-8.365 42.03a11.929 11.929 0 009.67 4.148c7.027-.347 12.166-3.743 15.375-10.008.368-.86.685-1.743.948-2.642h-2.32c-.686 0-1.371.043-2.049 0-1.888-.152-2.633-1.752-1.558-3.293.39-.559.847-1.075 1.262-1.609l2.007-2.54-16.121.034zm6.528 23.707c1.862.77 5.342 1.058 9.068.66 5.334-.567 9.889-2.624 13.047-7.162a22.065 22.065 0 003.683-10.686c.263-2.684.601-3.03 3.234-3.073.33 0 .66-.068 1.203-.135l-9.136-11.32-9.136 11.362c.525.05.847.101 1.118.11 2.887.068 3.387.677 3.124 3.539 0 .271-.06.55-.11.847-1.482 6.968-5.927 11.464-12.15 14.393-1.253.568-2.59.974-3.945 1.516v-.051zm15.977-40.81c-1.398-3.827-2.88-7.256-5.86-9.78-2.666-2.26-5.655-2.336-8.305-.16-3.09 2.54-4.615 6.037-5.927 9.948l8.069.695V40.183c0-1.253.846-1.041 1.88-1.075 1.032-.034 1.964-.186 1.998 1.11V53.01l8.145-.737zm-22.522 13.03h10.422V57.49a.957.957 0 00-.635-.652c-2.777-.254-5.554-.458-8.576-.686-.424 3.04-.805 6.02-1.211 9.153z" fill="#000" opacity=".5"/><path d="M68.132 33.14c1.194 2.624 2.354 5.274 3.616 7.873a1.43 1.43 0 001.202.559 9.475 9.475 0 002.76-.711c3.057-1.406 4.234-.847 4.555.28.322 1.125.305 2.26-3.505 3.496a55.7 55.7 0 01-14.597 2.54l-2.1.127v8.492c1.516 0 3.04.051 4.564 0 .356 0 .745-.465 1.016-.796 1.897-2.32 3.75-4.673 5.647-6.993 1.389-1.694 2.6-1.694 3.988 0 4.081 5.08 8.154 10.14 12.218 15.18.643.847 1.456 1.584.906 2.786-.55 1.203-1.694 1.22-2.786 1.228-1.092.009-2.684-.372-3.437.212-.754.584-.66 2.116-.923 3.243-2.329 10.16-9.187 16.205-19.61 17.373A30.48 30.48 0 1188.53 55.61c.17 2.125-.373 3.158-1.694 3.277-1.32.118-2.04-.745-2.252-3.04-.987-10.55-6.29-18.051-15.909-22.505a4.234 4.234 0 00-.542-.203zM45.644 59.775c0 3.573.788 6.189 1.177 9.313.957-.11 1.618-.212 2.287-.254 3.53-.195 7.06-.415 10.6-.525 1.448-.05 2.311.78 2.328 1.922.017 1.143-.923 1.981-2.438 1.956a62.993 62.993 0 00-19.093 2.447c-3.192 1.092-5.503 2.269-5.791 1.092-.288-1.177.195-3.192 4.724-4.851 1.194-.373 2.405-.686 3.523-1-.44-3.462-.847-6.773-1.279-10.16h-10.16c-1.694 0-2.54-.677-2.6-1.913-.059-1.236.847-1.964 2.54-1.973H41.7l1.262-10.21-1.761-.441a17.884 17.884 0 01-1.965-.559c-4.31-1.693-3.903-2.785-3.598-3.852.305-1.067 1.371-1.169 4.673.093.987.35 2.005.606 3.04.762a1.22 1.22 0 001.016-.483c1.22-2.6 2.38-5.24 3.556-7.865-.288.11-.711.237-1.1.414-16.138 7.316-20.456 29.1-8.374 42.03a11.955 11.955 0 009.669 4.148c7.027-.347 12.175-3.742 15.376-10.007.372-.86.689-1.742.948-2.642h-4.378c-1.889-.153-2.642-1.744-1.558-3.294.39-.558.846-1.075 1.253-1.608l2.015-2.54h-16.13zm6.528 23.707c1.872.77 5.352 1.066 9.068.66 5.334-.567 9.898-2.625 13.048-7.163a22.014 22.014 0 003.691-10.668c.254-2.684.601-3.031 3.226-3.073.33 0 .66-.068 1.202-.127-3.107-3.87-6.087-7.561-9.135-11.346l-9.128 11.363c.525.05.847.101 1.118.11 2.879.076 3.387.677 3.124 3.547-.02.285-.06.568-.118.847-1.473 6.968-5.927 11.464-12.142 14.393-1.253.56-2.599.949-3.954 1.474v-.017zm15.96-40.81c-1.388-3.819-2.87-7.256-5.85-9.78-2.667-2.252-5.664-2.328-8.306-.16-3.09 2.54-4.614 6.037-5.927 9.948l8.06.694V30.582c0-1.253.796-1.041 1.872-1.067 1.075-.025 1.964-.195 2.006 1.101v12.802l8.145-.745zm-22.504 13.03h10.43v-7.806a.932.932 0 00-.626-.66c-2.777-.255-5.563-.458-8.585-.687a975.37 975.37 0 00-1.22 9.153z" fill="#E6DE21"/></svg>