<svg width="120" height="120" fill="none" xmlns="http://www.w3.org/2000/svg"><path d="M59.987 114.285c29.932 0 54.196-24.264 54.196-54.196S89.919 5.893 59.987 5.893c-29.931 0-54.196 24.264-54.196 54.196 0 29.931 24.265 54.196 54.196 54.196z" fill="#02763D"/><path d="M101.322 60.656v22.801a6.26 6.26 0 01-1.16.847c-5.08 1.947-10.11 3.86-15.164 5.783l-20.456 7.78a1.695 1.695 0 01-1.532 0 4402.139 4402.139 0 00-18.263-10.016 1.312 1.312 0 01-.745-1.303v-1.694c-1.058.153-2.032.322-3.023.415a2.397 2.397 0 01-1.27-.195c-1.98-1.032-3.937-2.133-5.926-3.2a1.338 1.338 0 01-.763-1.32v-17.46a1.33 1.33 0 01.847-1.354c1.93-.847 3.853-1.693 5.791-2.54.39-.143.806-.198 1.22-.161 1.007.068 2.006.212 3.082.33v-8.848a1.769 1.769 0 01.804-1.566 2731.77 2731.77 0 0018.043-12.802 1.457 1.457 0 011.693-.144c8.484 4.217 16.984 8.428 25.502 12.633a1.464 1.464 0 01.915 1.464v6.198a.753.753 0 00.643.847c2.887.847 5.774 1.744 8.645 2.667.412.221.789.504 1.117.838zm-32.267 24.3v9.466c0 .796.127.847.847.61 2.38-.907 4.758-1.83 7.154-2.718a.846.846 0 00.644-.923V75.058c0-.66-.229-.847-.847-.847-2.32.187-4.645.345-6.977.475-.643 0-.846.28-.846.897.034 3.158.025 6.266.025 9.373zm12.159-2.633v7.527c0 .686.16.804.796.567 1.557-.584 3.107-1.185 4.673-1.761a.72.72 0 00.525-.796V74.313c0-.533-.203-.711-.72-.669-1.481.11-2.963.229-4.453.297-.677 0-.847.33-.847.965.043 2.438.026 4.927.026 7.417zm-8.569-33.698v-3.463a1.036 1.036 0 00-.474-.745c-1.837-.847-3.692-1.626-5.546-2.422-.55-.228-.728-.101-.728.517v7.73a.847.847 0 00.474.66c1.83.602 3.675 1.16 5.52 1.694.61.186.754.059.754-.601.009-1.11 0-2.236 0-3.37zM65.872 62.9v3.793c0 .432.093.728.61.754 1.837.093 3.674.186 5.511.296.517 0 .66-.195.66-.66v-6.859a.652.652 0 00-.634-.762 192.05 192.05 0 01-5.36-.973c-.626-.119-.847.093-.796.677.026 1.245.009 2.49.009 3.734zm-4.776 16.417v-3.793c0-.44-.16-.652-.6-.694-1.152-.102-2.304-.204-3.447-.322-.448 0-.669.11-.669.584v6.858a.846.846 0 00.44.618c1.11.381 2.227.737 3.388 1.033.753.195.846.06.846-.753.05-1.177.042-2.354.042-3.531zm0-32.233v-3.802c0-.685-.211-.796-.846-.44-1.152.711-2.312 1.414-3.438 2.168a1.077 1.077 0 00-.431.787v6.663c0 .695.177.847.795.542 1.118-.482 2.219-.999 3.387-1.473a.78.78 0 00.567-.847c-.05-1.202-.034-2.421-.034-3.598zm0 16.087v-3.726c0-.533-.177-.736-.71-.592l-3.472.906a.635.635 0 00-.525.72V67.2c0 .517.203.72.728.669a70.048 70.048 0 013.251-.263c.56 0 .754-.279.737-.846-.034-1.228-.008-2.413-.008-3.624v.034zm15.867-12.7v3.065a.745.745 0 00.627.846c1.194.347 2.37.728 3.556 1.084.677.203.847.093.847-.644v-5.52a.847.847 0 00-.644-.94c-1.185-.49-2.354-1.024-3.54-1.524-.642-.28-.846-.169-.846.568-.008 1.007 0 2.032 0 3.048v.017zm4.996 14.393v-2.93c0-.363-.077-.643-.508-.719-1.262-.22-2.54-.44-3.785-.686-.559-.11-.711.136-.711.644v6.18c0 .542.228.746.745.77a97.83 97.83 0 013.514.255c.567.05.753-.186.745-.72-.017-.957 0-1.888 0-2.82v.026zM53.78 50.987v-3.192c0-.61-.228-.736-.736-.432-.847.491-1.635.99-2.422 1.533a.998.998 0 00-.356.694v5.664c0 .635.178.737.78.474.736-.313 1.456-.651 2.2-.956a.787.787 0 00.568-.847c-.05-.982-.034-1.956-.034-2.938zm0 26.916v-3.056c0-.508-.195-.712-.703-.737-.702 0-1.414-.119-2.116-.212-.517-.067-.728.119-.728.652v5.588a.657.657 0 00.312.675.66.66 0 00.246.087 52.8 52.8 0 012.244.618c.533.17.745 0 .737-.55-.009-1.025 0-2.04 0-3.073l.008.008zm0-13.547v-3.099c0-.39-.11-.669-.593-.542-.846.22-1.693.407-2.54.678a.847.847 0 00-.423.618v5.723c0 .508.229.66.703.61a32.19 32.19 0 012.184-.195c.491 0 .652-.237.644-.703 0-1.024.017-2.04.017-3.098l.008.008zm34.993-9.796v-2.455a1.05 1.05 0 00-.465-.754c-.847-.432-1.778-.779-2.676-1.168-.482-.212-.71-.077-.71.457v5.453a.845.845 0 00.43.618c.848.321 1.813.567 2.719.846.5.153.71 0 .702-.542-.017-.787-.008-1.608-.008-2.43l.008-.025zm-3.877 10.541v2.794c0 .364.127.585.525.601.906 0 1.812.085 2.726.153.474 0 .626-.203.626-.635v-4.92a.625.625 0 00-.6-.72c-.847-.135-1.694-.287-2.49-.43-.796-.145-.787-.077-.787.693 0 .77-.009 1.71-.009 2.49l.009-.026zM48.489 53.696v-2.59c0-.67-.237-.796-.846-.45-.61.348-1.11.661-1.626 1.042a.913.913 0 00-.364.627v4.995c0 .508.237.635.677.449.44-.186 1.093-.5 1.643-.72a.728.728 0 00.508-.846c.025-.788.034-1.635.034-2.481l-.026-.026zm0 23.2v-1.694c0-1.54 0-1.54-1.481-1.693l-.66-.068c-.492-.068-.695.135-.687.627v3.327c0 2.083 0 2.083 2.016 2.616.694.187.804.102.804-.643s.034-1.626.034-2.447l-.026-.026zm0-11.668v-2.6c0-.473-.186-.66-.652-.532-.572.125-1.137.28-1.693.465a.762.762 0 00-.415.559v5.08c0 .364.178.534.542.5.55-.043 1.1-.102 1.694-.127.592-.026.643-.263.626-.728-.085-.856-.076-1.72-.076-2.591l-.026-.026zm43.545 10.804v2.26c0 .508.22.678.711.568.492-.11 1.169-.254 1.761-.356a.542.542 0 00.534-.61v-4.233c0-.482-.229-.626-.669-.593-.44.034-1.1.11-1.693.11s-.695.255-.678.746c.076.71.06 1.43.06 2.133l-.026-.025zm0-10.033v2.26c0 .339.068.618.491.644l1.93.118c.382 0 .576-.144.576-.541v-4.327c0-.39-.194-.55-.558-.601a25.687 25.687 0 01-1.761-.33c-.585-.136-.686.101-.686.575.042.762.034 1.49.034 2.244l-.026-.042zm4.335 9.508v1.99c0 .38.136.618.55.55a12.154 12.154 0 001.558-.33.771.771 0 00.415-.542v-3.852c0-.398-.186-.576-.567-.55-.381.025-.931.092-1.397.11-.466.016-.584.22-.576.626.051.694.043 1.355.043 2.023l-.026-.025zm0-8.966v1.024c0 1.837-.135 1.566 1.524 1.693h.339c.474.068.703-.11.686-.618V66.1c0-1.854 0-1.837-1.855-2.006-.5-.051-.71.101-.702.6.042.627.034 1.245.034 1.872l-.026-.025zm-56.837.262v-1.77c0-.465-.161-.728-.695-.55-.378.12-.762.22-1.151.296a.6.6 0 00-.525.712v2.26c0 2.142 0 1.694 1.778 1.575a.55.55 0 00.593-.635v-1.888zm0 8.365v-.846c0-1.694 0-1.694-1.694-1.753-.483 0-.694.135-.677.626v2.261c0 1.694 0 1.694 1.642 2.05h.068c.466.118.669-.077.66-.543.017-.533.026-1.151.026-1.77l-.026-.025zm-3.514-7.73v-1.524c0-.474-.161-.72-.686-.542a3.43 3.43 0 01-.644.17.626.626 0 00-.584.728v2.718c0 .524.212.736.728.651a3.51 3.51 0 01.593-.059c.424 0 .601-.203.593-.61-.009-.406.025-.998.025-1.507l-.025-.025zm0 7.078V73.18c0-.44-.153-.847-.745-.847-.18 0-.358-.017-.534-.05-.457-.06-.652.151-.643.6v2.803a1.1 1.1 0 00.49.652c.239.116.493.196.754.237.424.118.644 0 .644-.483l.034-1.575z" fill="#000" opacity=".5"/><path d="M94.117 51.055v22.8a5.485 5.485 0 01-1.151.848c-5.08 1.947-10.11 3.86-15.164 5.782l-20.456 7.79a1.694 1.694 0 01-1.533 0L37.542 78.242a1.328 1.328 0 01-.745-1.304v-1.694c-1.059.153-2.04.33-3.023.415a2.37 2.37 0 01-1.27-.194c-1.99-1.033-3.937-2.134-5.927-3.2a1.337 1.337 0 01-.753-1.296V53.51a1.313 1.313 0 01.846-1.346c1.93-.847 3.844-1.693 5.792-2.54.39-.143.806-.198 1.219-.16 1.008.075 2.007.21 3.082.33v-8.84a1.743 1.743 0 01.804-1.575c6-4.239 12.012-8.515 18.035-12.827a1.457 1.457 0 011.693-.144c8.512 4.216 17.021 8.427 25.527 12.633a1.447 1.447 0 01.915 1.464v6.198a.754.754 0 00.643.847c2.887.846 5.775 1.744 8.645 2.667.405.22.774.504 1.092.838zm-32.267 24.3v9.465c0 .796.127.847.847.61 2.387-.906 4.766-1.829 7.154-2.718a.846.846 0 00.644-.923V65.457c0-.652-.238-.847-.847-.847a319.98 319.98 0 01-6.985.483c-.635 0-.847.27-.847.846.05 3.2.034 6.308.034 9.416zm12.167-2.634v7.527c0 .686.17.847.847.568 1.557-.585 3.107-1.186 4.665-1.761a.72.72 0 00.533-.796v-13.59c0-.533-.212-.71-.72-.668-1.49.11-2.971.228-4.453.296-.677 0-.847.33-.847.965-.008 2.472-.025 5.013-.025 7.46zm-8.569-33.698v-3.462a.999.999 0 00-.465-.745c-1.838-.847-3.7-1.626-5.555-2.422-.541-.229-.728-.102-.728.517v7.73a.915.915 0 00.474.66 165.52 165.52 0 005.53 1.693c.6.187.744.06.753-.6 0-1.101-.009-2.236-.009-3.37zm-6.773 14.318v3.793c0 .44.102.728.61.754 1.845.093 3.683.186 5.52.304.508 0 .66-.203.66-.669v-6.858a.66.66 0 00-.635-.762 229.439 229.439 0 01-5.368-.965c-.626-.127-.796.093-.787.669.008 1.194 0 2.447 0 3.734zM53.9 69.716v-3.793c0-.44-.17-.652-.61-.695a157.128 157.128 0 01-3.438-.322c-.448 0-.668.11-.668.585v6.858a.846.846 0 00.44.618c1.1.38 2.227.737 3.387 1.033.762.203.846.06.846-.754l.043-3.53zm0-32.233V33.68c0-.686-.22-.796-.805-.44-1.16.71-2.311 1.414-3.437 2.167a1.092 1.092 0 00-.432.788c-.042 2.226 0 4.445 0 6.663 0 .703.17.847.787.542 1.127-.483 2.227-1 3.387-1.473a.78.78 0 00.559-.847c-.085-1.202-.068-2.396-.068-3.598h.009zm0 16.087v-3.726c0-.533-.187-.736-.72-.593-1.151.305-2.311.619-3.463.906a.625.625 0 00-.525.72V57.6c0 .516.203.72.728.669a82.35 82.35 0 013.243-.263c.567 0 .754-.28.745-.847-.042-1.227-.017-2.421-.017-3.623l.009.033zm15.866-12.7v3.056a.762.762 0 00.635.846c1.186.34 2.371.72 3.556 1.076.67.203.847.093.847-.644v-5.52a.846.846 0 00-.635-.94c-1.185-.483-2.362-1.016-3.539-1.524-.652-.28-.847-.16-.847.567-.025 1.033-.025 2.05-.025 3.074l.008.008zm4.996 14.393v-2.921c0-.373-.085-.652-.508-.728-1.27-.22-2.54-.44-3.793-.686-.56-.11-.703.135-.703.643v6.181c0 .542.229.745.745.77 1.177.068 2.345.145 3.514.255.576.05.762-.187.753-.72-.025-.957-.017-1.888-.017-2.82l.009.026zM46.567 41.386v-3.192c0-.61-.237-.737-.745-.432-.846.491-1.634.99-2.413 1.532a.966.966 0 00-.355.695v5.664c0 .635.169.737.779.483.736-.314 1.456-.66 2.193-.957a.796.796 0 00.567-.847c-.026-.99-.026-1.998-.026-2.946zm0 26.916v-3.057c0-.508-.186-.711-.694-.736-.711 0-1.414-.119-2.117-.212-.525-.068-.736.127-.728.652v5.596a.652.652 0 00.55.754c.754.195 1.508.39 2.244.618.542.17.745 0 .745-.55v-3.065zm0-13.547v-3.108c0-.389-.101-.668-.584-.541-.846.22-1.693.406-2.54.677a.846.846 0 00-.423.618v5.724c0 .508.228.66.711.61.72-.085 1.448-.162 2.184-.196.492 0 .652-.237.644-.702.008-1.016.008-2.032.008-3.057v-.025zm34.994-9.77v-2.456a1.032 1.032 0 00-.474-.745c-.847-.44-1.779-.788-2.668-1.177-.482-.212-.71-.076-.71.465v5.445a.848.848 0 00.44.618c.846.322 1.811.576 2.717.846.492.153.703 0 .703-.541-.008-.813-.008-1.635-.008-2.456zm-3.878 10.54v2.794c0 .373.127.585.533.601.906 0 1.812.085 2.718.153.474 0 .635-.203.635-.635v-4.92a.626.626 0 00-.61-.71c-.846-.136-1.693-.297-2.48-.44-.788-.145-.788-.077-.796.694v2.463zM41.318 44.13v-2.6c0-.668-.237-.795-.847-.44-.61.356-1.109.652-1.625 1.033a.914.914 0 00-.356.627v4.995c0 .508.237.644.677.45.44-.196 1.084-.5 1.643-.72a.737.737 0 00.508-.847c-.017-.813 0-1.66 0-2.498zm0 23.199v-1.693c0-1.541 0-1.541-1.49-1.694-.22 0-.44 0-.66-.067-.483-.068-.686.135-.678.626v3.328c0 2.09 0 2.09 2.007 2.616.694.186.804.101.846-.644l-.025-2.472zm0-11.676v-2.59c0-.475-.186-.67-.652-.542-.572.126-1.137.281-1.693.465a.77.77 0 00-.424.56v5.08c0 .363.178.533.534.499l1.693-.127c.491 0 .644-.263.635-.728-.11-.881-.093-1.745-.093-2.617zm43.545 10.804v2.26c0 .517.22.678.703.568a29.6 29.6 0 011.76-.347.56.56 0 00.543-.618v-4.234c0-.482-.238-.626-.67-.592-.431.033-1.108.11-1.693.11-.584 0-.694.262-.686.753.06.678.043 1.389.043 2.1zm0-10.033v2.26c0 .34.067.618.49.644l1.931.118c.381 0 .576-.144.576-.541v-4.327c0-.39-.186-.542-.55-.601a24.757 24.757 0 01-1.761-.33c-.585-.136-.695.101-.686.584.008.728 0 1.465 0 2.193zm4.335 9.508v1.99c0 .38.144.618.55.55a11.877 11.877 0 001.558-.33.746.746 0 00.423-.542v-3.852c0-.398-.186-.576-.575-.542-.39.034-.923.084-1.389.101-.466.017-.584.22-.584.627.017.669.017 1.33.017 1.998zm0-8.966v.999c0 1.846-.127 1.575 1.532 1.693h.33c.483.06.703-.118.695-.626v-2.54c0-1.855 0-1.838-1.855-2.007-.49 0-.702.102-.694.601 0 .635-.017 1.253-.017 1.88h.009zm-56.83.27v-1.803c0-.465-.16-.72-.694-.55-.38.12-.768.218-1.16.296a.609.609 0 00-.525.711v2.261c0 2.142 0 1.651 1.77 1.575a.55.55 0 00.601-.635c-.005-.621-.005-1.24 0-1.854h.009zm0 8.357v-.796c0-1.693 0-1.693-1.693-1.76-.49 0-.694.135-.686.634v2.253c0 1.693 0 1.693 1.643 2.049h.068c.457.118.66-.077.66-.542-.008-.602 0-1.22 0-1.838h.009zm-3.513-7.721v-1.533c0-.474-.17-.72-.694-.533a5.17 5.17 0 01-.635.17.618.618 0 00-.593.719v2.718c0 .525.22.736.736.651.197-.032.395-.052.593-.059a.517.517 0 00.593-.61c-.017-.507-.009-.973-.009-1.523h.009zm0 7.07v-1.338c0-.491-.161-.847-.745-.847a2.85 2.85 0 01-.534-.05c-.465-.06-.652.152-.652.609v2.794c.078.27.253.503.492.652.24.116.497.196.761.237.424.118.644 0 .644-.483l.034-1.575z" fill="#E6DE21"/></svg>