<svg width="120" height="120" fill="none" xmlns="http://www.w3.org/2000/svg"><path d="M59.098 114.2c29.932 0 54.196-24.264 54.196-54.196 0-29.931-24.264-54.196-54.196-54.196-29.931 0-54.196 24.265-54.196 54.196 0 29.932 24.265 54.196 54.196 54.196z" fill="#02763D"/><path d="M42.58 85.405c-1.093-2.54-2.007-4.7-2.99-6.85a1.364 1.364 0 00-.998-.517c-.99-.076-1.99 0-2.99 0-1.498-.05-2.183-.736-2.209-2.192 0-1.194-.05-2.38 0-3.573a5.8 5.8 0 012.853-4.818 2.54 2.54 0 001.076-1.583 28.245 28.245 0 0121.167-23.538 2.539 2.539 0 001.913-1.414c1.033-1.981 2.862-2.59 5.03-2.54 2.167.05 3.86.694 4.85 2.625a2.438 2.438 0 001.804 1.346 28.23 28.23 0 0121.286 23.614 2.387 2.387 0 00.999 1.481 5.792 5.792 0 012.997 4.844v3.564a1.956 1.956 0 01-2.117 2.142c-.999 0-2.006-.068-2.988.051a1.83 1.83 0 00-1.186.847c-.846 1.693-1.625 3.53-2.54 5.257-.321.644-.406 1.076.195 1.584a22.78 22.78 0 011.812 1.812 1.871 1.871 0 010 2.802 232.666 232.666 0 01-5.148 5.14c-.847.846-2.074.94-2.76-.051-1.693-2.447-3.446-2.252-5.724-.78a17.606 17.606 0 01-4.783 1.77c-.847.246-1.152.627-1.093 1.474.055.758.055 1.519 0 2.277a1.975 1.975 0 01-1.332 2.007 1.972 1.972 0 01-.852.093h-6.85c-1.49 0-2.447-.72-2.218-2.142.457-2.837-.847-3.861-3.387-4.437a19.157 19.157 0 01-4.75-2.184c-.779-.424-1.253-.415-1.811.262a17.263 17.263 0 01-1.694 1.694 1.862 1.862 0 01-2.794 0c-1.693-1.694-3.386-3.336-5.08-5.08-.948-.983-.906-1.973.05-3.015a16.67 16.67 0 011.22-1.202 9.94 9.94 0 011.042-.77zM41.047 66.6c.373.06.559.11.737.118h16.984a3.049 3.049 0 001.609-.728 8.255 8.255 0 019.957 0 3.95 3.95 0 002.167.754c5.233.06 10.465 0 15.69 0 .456 0 .914 0 1.498-.076a24.621 24.621 0 00-9.119-16.18c-.313 2.218-.593 4.19-.847 6.163a1.795 1.795 0 01-1.608 1.694c-1.389.203-2.278-.847-2.058-2.49.339-2.582.678-5.156 1.042-7.89l-6.071-2.244v8.331c-.068 3.48-2.15 5.614-5.444 5.673-3.599.068-5.808-2.04-5.868-5.673-.042-2.658 0-5.317 0-8.374-2.015.847-3.801 1.508-5.545 2.295a1.243 1.243 0 00-.381 1.033c.254 2.26.575 4.521.846 6.773.212 1.499-.296 2.43-1.465 2.633-1.168.204-1.98-.5-2.218-2.006-.296-1.897-.533-3.793-.847-5.927a24.554 24.554 0 00-9.059 16.12zm6.028 25.138c.505-.725 1.05-1.42 1.634-2.083 1.169-1.236 1.83-1.296 3.218-.339a23.116 23.116 0 009.542 3.912 2.166 2.166 0 012.032 2.447v2.794h3.709v-3.057a1.938 1.938 0 011.693-2.1 24.47 24.47 0 0010.16-4.233 1.837 1.837 0 012.675.33c.66.737 1.304 1.49 1.973 2.253l3.04-3.023a23.936 23.936 0 01-1.93-1.524c-1.482-1.422-1.448-1.914-.365-3.683 1.084-1.77 1.922-3.446 3.023-5.436-.846.046-1.694.046-2.54 0-1.253-.152-1.854.33-2.49 1.473-3.725 6.698-9.516 10.33-17.178 10.321-7.84 0-13.683-3.759-17.408-10.668-.449-.846-.847-1.236-1.837-1.134-.991.101-1.694 0-2.964 0 1.126 2.015 2.05 3.818 3.09 5.546 1.042 1.727 1.025 2.167-.304 3.454-.61.593-1.321 1.084-2.015 1.693l3.242 3.057zm4.683-13.725c2.302 5.148 8.686 8.467 15.155 7.984 4.953-.364 10.897-4.318 11.938-7.984h-6.993a2.54 2.54 0 00-1.355.576 8.145 8.145 0 01-10.262 0 2.608 2.608 0 00-1.363-.584c-2.32-.026-4.648.008-7.12.008zm21.65-3.87h20.116c.288-3.115-.16-3.598-3.166-3.598H73.424l-.017 3.599zm-16.088 0v-3.598c-5.783 0-11.472.093-17.162 0-2.896-.076-3.387 1.287-2.752 3.666l19.914-.067zm8.018 2.456a4.235 4.235 0 004.37-4.233 4.31 4.31 0 00-8.62-.119 4.231 4.231 0 004.208 4.378l.042-.026zm1.914-27.61v-5.08c0-1.355-.584-1.837-1.897-1.829-1.312.009-1.854.474-1.854 1.753v10.245c0 1.405.55 1.913 1.88 1.896 1.329-.017 1.854-.686 1.82-1.981-.025-1.66.009-3.32.009-4.979l.042-.025z" fill="#000" opacity=".5"/><path d="M35.383 75.812c-1.093-2.54-2.007-4.708-2.998-6.858a1.356 1.356 0 00-.99-.517c-.99-.076-1.998 0-2.997 0-1.49-.06-2.176-.736-2.21-2.201 0-1.194-.043-2.38 0-3.565a5.74 5.74 0 012.853-4.817c.546-.373.93-.939 1.075-1.584a28.253 28.253 0 0121.167-23.546 2.54 2.54 0 001.914-1.414c1.033-1.981 2.862-2.59 5.02-2.54 2.16.051 3.87.695 4.86 2.625a2.387 2.387 0 001.804 1.346 28.228 28.228 0 0121.286 23.614c.15.589.523 1.096 1.041 1.414a5.808 5.808 0 012.913 4.885v3.565a1.947 1.947 0 01-2.126 2.142c-.99 0-2.006-.068-2.988.05a1.786 1.786 0 00-1.177.847c-.847 1.694-1.626 3.531-2.54 5.258-.33.652-.407 1.076.186 1.584a19.349 19.349 0 011.812 1.82 1.854 1.854 0 010 2.794 232.666 232.666 0 01-5.148 5.14c-.847.846-2.074.94-2.76-.051-1.694-2.447-3.446-2.253-5.732-.78a17.273 17.273 0 01-4.775 1.77c-.847.246-1.16.627-1.093 1.473.055.759.055 1.52 0 2.278a1.967 1.967 0 01-1.33 2.01 1.966 1.966 0 01-.854.09h-6.85c-1.498 0-2.455-.72-2.218-2.142.457-2.837-.847-3.861-3.387-4.437a19.025 19.025 0 01-4.767-2.176c-.779-.423-1.253-.406-1.82.263a16.308 16.308 0 01-1.693 1.693 1.871 1.871 0 01-2.803 0c-1.693-1.693-3.386-3.336-5.08-5.08-.957-.982-.906-1.973.05-3.014.383-.422.787-.823 1.212-1.203.367-.266.749-.511 1.143-.736zm-1.516-18.813c.246.053.495.092.745.118h16.934a3.066 3.066 0 001.617-.72 8.22 8.22 0 019.949 0 4.022 4.022 0 002.167.745c5.233.068 10.465 0 15.697 0 .458 0 .915 0 1.5-.076a24.672 24.672 0 00-9.103-16.18 661.754 661.754 0 00-.846 6.164 1.804 1.804 0 01-1.61 1.693c-1.396.204-2.277-.846-2.065-2.489l1.05-7.89-6.062-2.312c0 3.022.042 5.68 0 8.331-.068 3.48-2.16 5.613-5.445 5.681-3.598.06-5.808-2.049-5.867-5.681v-8.374c-2.015.847-3.802 1.516-5.546 2.295-.245.11-.423.694-.38 1.033.253 2.26.567 4.521.846 6.773.203 1.499-.305 2.439-1.465 2.633-1.16.195-1.956-.482-2.21-1.964-.305-1.897-.533-3.793-.846-5.927A24.554 24.554 0 0033.867 57zm6.003 25.129c.525-.677 1.025-1.44 1.634-2.083 1.177-1.236 1.838-1.295 3.226-.338a22.963 22.963 0 009.534 3.911 2.175 2.175 0 012.049 2.447v2.803h3.717v-3.065a1.948 1.948 0 011.693-2.1 24.46 24.46 0 0010.16-4.234 1.828 1.828 0 012.667.33c.66.746 1.313 1.49 1.973 2.261l3.065-3.005a24.058 24.058 0 01-1.939-1.525c-1.473-1.422-1.44-1.913-.356-3.683 1.084-1.77 1.922-3.437 3.015-5.435-.847.045-1.694.045-2.54 0-1.245-.153-1.846.33-2.481 1.473-3.734 6.697-9.525 10.33-17.188 10.321-7.832 0-13.682-3.75-17.408-10.668-.448-.847-.846-1.236-1.828-1.126-.983.11-1.694 0-2.964 0 1.118 2.023 2.04 3.818 3.09 5.545 1.05 1.728 1.025 2.168-.313 3.464-.61.584-1.312 1.083-2.006 1.642l3.2 3.065zm4.69-13.716c2.304 5.148 8.68 8.467 15.148 7.984 4.953-.364 10.897-4.318 11.938-7.984h-6.985a2.54 2.54 0 00-1.363.575 8.146 8.146 0 01-10.262 0 2.65 2.65 0 00-1.355-.584c-2.328-.025-4.648.009-7.12.009zm21.65-3.861h20.151c.28-3.116-.16-3.607-3.175-3.607H66.253l-.043 3.607zm-16.129 0v-3.59c-5.783 0-11.48.102-17.17 0-2.888-.076-3.337 1.287-2.744 3.666l19.914-.076zm8.018 2.455a4.234 4.234 0 004.36-4.233 4.31 4.31 0 10-8.619-.119 4.236 4.236 0 004.26 4.37v-.018zm1.905-27.61v-5.08c0-1.355-.584-1.837-1.905-1.829-1.32.009-1.82.491-1.812 1.77v10.245c0 1.405.542 1.913 1.88 1.896 1.338-.017 1.854-.686 1.82-1.981-.017-1.685.017-3.345.017-5.004v-.017z" fill="#E6DE21"/></svg>