<svg width="120" height="120" fill="none" xmlns="http://www.w3.org/2000/svg"><path d="M59.158 114.361c29.931 0 54.196-24.264 54.196-54.196 0-29.931-24.265-54.196-54.196-54.196-29.932 0-54.196 24.264-54.196 54.196s24.264 54.196 54.196 54.196z" fill="#26792F"/><path d="M75.355 42.732c1.193 2.633 2.362 5.283 3.615 7.883a1.456 1.456 0 001.202.558 9.784 9.784 0 002.769-.71c3.056-1.415 4.233-.848 4.555.279.322 1.126.296 2.252-3.514 3.496a56.052 56.052 0 01-14.597 2.54l-2.1.127v8.493c1.516 0 3.049.05 4.564 0 .356 0 .745-.458 1.016-.788 1.897-2.32 3.76-4.673 5.648-6.993 1.388-1.694 2.608-1.694 3.996 0 4.081 5.08 8.15 10.137 12.21 15.172.643.847 1.455 1.592.905 2.794s-1.693 1.22-2.777 1.228c-1.084.008-2.684-.373-3.438.203-.753.576-.668 2.125-.922 3.251-2.329 10.16-9.195 16.206-19.618 17.374a30.48 30.48 0 1126.865-32.445c.161 2.134-.38 3.167-1.693 3.285-1.313.119-2.04-.745-2.252-3.04-1-10.54-6.274-18.025-15.91-22.495a5.696 5.696 0 00-.524-.212zM52.85 69.377c0 3.573.779 6.19 1.168 9.314.957-.11 1.626-.22 2.295-.255 3.53-.194 7.061-.414 10.592-.533 1.456 0 2.32.787 2.328 1.93.008 1.144-.914 1.982-2.438 1.956a63.028 63.028 0 00-19.093 2.447c-3.192 1.092-5.495 2.27-5.791 1.092-.297-1.176.194-3.2 4.724-4.893 1.194-.364 2.405-.678 3.522-.991-.431-3.463-.846-6.773-1.278-10.16h-10.16c-1.694 0-2.54-.678-2.591-1.922-.05-1.245.847-1.956 2.54-1.964h10.236l1.27-10.22c-.55-.135-1.16-.27-1.76-.432a16.859 16.859 0 01-1.99-.559c-4.319-1.693-3.904-2.785-3.599-3.852.305-1.067 1.363-1.168 4.674.093.983.351 1.998.607 3.03.762a1.21 1.21 0 001.017-.482c1.228-2.6 2.38-5.241 3.564-7.866-.296.11-.71.237-1.109.415-16.137 7.315-20.456 29.1-8.365 42.03a11.93 11.93 0 009.67 4.148c7.027-.347 12.166-3.743 15.375-10.008a23.4 23.4 0 00.948-2.642h-2.32c-.685 0-1.371.043-2.049 0-1.888-.152-2.633-1.752-1.558-3.293.39-.559.847-1.075 1.262-1.609l2.007-2.54-16.121.034zm6.528 23.707c1.862.77 5.342 1.058 9.068.66 5.334-.567 9.889-2.624 13.047-7.162a22.065 22.065 0 003.683-10.686c.263-2.683.601-3.03 3.234-3.073.33 0 .66-.068 1.203-.135l-9.136-11.32-9.136 11.362c.525.05.847.101 1.118.11 2.887.068 3.387.677 3.124 3.539 0 .271-.06.55-.11.847-1.482 6.968-5.927 11.464-12.15 14.393-1.253.568-2.59.974-3.945 1.516v-.051zm15.977-40.81c-1.397-3.827-2.88-7.256-5.86-9.78-2.666-2.26-5.655-2.336-8.305-.16-3.09 2.54-4.615 6.037-5.927 9.948l8.069.695V40.183c0-1.253.846-1.041 1.88-1.075 1.032-.034 1.964-.186 1.998 1.11V53.01l8.145-.737zm-22.522 13.03h10.422V57.49a.956.956 0 00-.635-.652c-2.777-.254-5.554-.458-8.576-.686-.424 3.04-.805 6.02-1.211 9.153z" fill="#000" opacity=".5"/><path d="M68.132 33.14c1.194 2.624 2.354 5.274 3.616 7.873a1.43 1.43 0 001.202.559 9.473 9.473 0 002.76-.711c3.057-1.406 4.234-.847 4.555.28.322 1.125.305 2.26-3.505 3.496a55.7 55.7 0 01-14.597 2.54l-2.1.127v8.492c1.516 0 3.04.051 4.564 0 .356 0 .745-.465 1.016-.796 1.897-2.32 3.75-4.673 5.647-6.993 1.389-1.694 2.6-1.694 3.988 0 4.081 5.08 8.154 10.14 12.218 15.18.643.847 1.456 1.584.906 2.786-.55 1.203-1.694 1.22-2.786 1.228-1.092.009-2.684-.372-3.437.212-.754.584-.66 2.116-.923 3.243-2.329 10.16-9.187 16.205-19.61 17.373A30.48 30.48 0 1188.53 55.61c.17 2.125-.373 3.158-1.694 3.277-1.32.118-2.04-.745-2.252-3.04-.987-10.55-6.29-18.051-15.909-22.505a4.24 4.24 0 00-.542-.203zM45.644 59.775c0 3.573.788 6.189 1.177 9.313.957-.11 1.618-.212 2.286-.254 3.531-.195 7.062-.415 10.6-.525 1.449-.05 2.312.78 2.33 1.922.016 1.143-.924 1.981-2.44 1.956a62.992 62.992 0 00-19.092 2.447c-3.192 1.092-5.503 2.269-5.791 1.092-.288-1.177.195-3.192 4.724-4.851 1.194-.373 2.405-.686 3.523-1-.44-3.462-.847-6.773-1.279-10.16h-10.16c-1.694 0-2.54-.677-2.6-1.913-.059-1.236.847-1.964 2.54-1.973H41.7l1.262-10.21-1.762-.441a17.896 17.896 0 01-1.964-.559c-4.31-1.693-3.903-2.785-3.598-3.852.305-1.067 1.371-1.169 4.673.093.987.35 2.005.606 3.04.762a1.22 1.22 0 001.016-.483c1.22-2.6 2.38-5.24 3.556-7.865-.288.11-.711.237-1.1.414-16.138 7.316-20.456 29.1-8.374 42.03a11.955 11.955 0 009.669 4.148c7.027-.347 12.175-3.742 15.376-10.007.372-.86.689-1.742.948-2.642h-4.378c-1.889-.153-2.642-1.744-1.558-3.294.39-.558.846-1.075 1.253-1.608l2.015-2.54h-16.13zm6.528 23.707c1.872.77 5.351 1.066 9.068.66 5.334-.567 9.898-2.625 13.048-7.163a22.014 22.014 0 003.691-10.668c.254-2.684.601-3.031 3.226-3.073.33 0 .66-.068 1.202-.127-3.107-3.87-6.087-7.561-9.135-11.346l-9.128 11.363c.525.05.847.101 1.118.11 2.879.076 3.387.677 3.124 3.547-.02.285-.06.568-.118.847-1.473 6.968-5.927 11.464-12.142 14.393-1.253.56-2.599.949-3.954 1.474v-.017zm15.96-40.81c-1.388-3.819-2.87-7.256-5.85-9.78-2.667-2.252-5.664-2.328-8.306-.16-3.09 2.54-4.615 6.037-5.927 9.948l8.06.694V30.582c0-1.253.796-1.041 1.872-1.067 1.075-.025 1.964-.195 2.006 1.101v12.802l8.145-.745zm-22.504 13.03h10.43v-7.806a.932.932 0 00-.626-.66c-2.777-.255-5.563-.458-8.585-.687a975.37 975.37 0 00-1.22 9.153z" fill="#fff"/><g clip-path="url(#clip0)"><g opacity=".42"><path opacity=".42" d="M71.866 950.848h-850.812v-1108.17H71.866h-850.812v877.339H71.866v230.831z" fill="#E6DE21"/><path opacity=".42" d="M71.875-157.322H-611.54v852.76H71.875v-852.76z" fill="url(#paint0_radial)"/></g><path d="M59.157 114.895c29.932 0 54.197-24.265 54.197-54.196 0-29.932-24.265-54.197-54.197-54.197-29.931 0-54.196 24.265-54.196 54.197 0 29.931 24.265 54.196 54.197 54.196z" fill="#02763D"/><g style="mix-blend-mode:multiply" opacity=".5" fill="#000"><path d="M38.177 91.535c.504-.463.973-.96 1.405-1.49a29.882 29.882 0 001.694-2.82c.313-.593.16-1.075-.483-1.524a12.472 12.472 0 01-4.098-4.674 12.202 12.202 0 01.093-11.48 16.01 16.01 0 0110.855-8.586 21.218 21.218 0 0115.917 1.693c9.424 5.08 9.991 17.603 1.406 23.53-4.335 2.988-9.195 3.64-14.292 3.192-.974-.085-1.93-.348-2.904-.475a1.092 1.092 0 00-.847.195c-2.455 2.346-5.436 2.718-8.746 2.439z" opacity=".5"/><path d="M83.821 72.213a31.112 31.112 0 001.694 3.006c.429.559.896 1.088 1.397 1.583-3.285.297-6.291-.11-8.755-2.599a1.032 1.032 0 00-.847-.212c-.973.136-1.93.415-2.895.508l-1.093.085a14.918 14.918 0 00-8.06-13.894 21.836 21.836 0 00-11.074-2.675 14.774 14.774 0 017.433-11.939 20.059 20.059 0 0115.918-1.77 16.256 16.256 0 0110.829 9.103 13.75 13.75 0 01.093 12.217 13.26 13.26 0 01-4.106 4.979 1.159 1.159 0 00-.534 1.608z" opacity=".5"/></g><path d="M30.972 81.933c.506-.463.976-.964 1.405-1.498a26.732 26.732 0 001.693-2.82c.314-.593.17-1.075-.474-1.515a12.7 12.7 0 01-4.106-4.682 12.226 12.226 0 01.144-11.473 16.027 16.027 0 0110.812-8.569 21.218 21.218 0 0115.918 1.694c9.423 5.122 9.982 17.61 1.397 23.53-4.327 2.988-9.195 3.64-14.284 3.191-.974-.084-1.93-.347-2.904-.474a1.16 1.16 0 00-.847.195c-2.472 2.32-5.46 2.7-8.754 2.421z" fill="#E6DE21"/><path d="M76.65 62.654a29.19 29.19 0 001.693 3.006c.423.565.89 1.094 1.397 1.583-3.285.297-6.29-.101-8.754-2.599a1.11 1.11 0 00-.847-.212c-.965.136-1.922.415-2.896.508l-1.083.085a14.918 14.918 0 00-8.06-13.894 21.887 21.887 0 00-11.185-2.675 14.824 14.824 0 017.442-11.939 20.032 20.032 0 0115.918-1.803 16.214 16.214 0 0110.862 9.102 13.7 13.7 0 01.094 12.209 13.158 13.158 0 01-4.098 4.978 1.159 1.159 0 00-.483 1.651z" fill="#E6DE21"/></g><defs><radialGradient id="paint0_radial" cx="0" cy="0" r="1" gradientUnits="userSpaceOnUse" gradientTransform="matrix(1013.25 0 0 1007.8 -493.7 594.655)"><stop stop-color="#fff"/><stop offset=".08" stop-color="#fff"/><stop offset=".5" stop-color="#fff"/><stop offset="1" stop-color="#E5E3E3"/></radialGradient><clipPath id="clip0"><path fill="#fff" d="M0 0h120v120H0z"/></clipPath></defs></svg>