<svg width="120" height="120" fill="none" xmlns="http://www.w3.org/2000/svg"><path d="M62.036 114.2c29.932 0 54.196-24.264 54.196-54.196 0-29.931-24.264-54.196-54.196-54.196-29.931 0-54.196 24.265-54.196 54.196 0 29.932 24.265 54.196 54.196 54.196z" fill="#02763D"/><g style="mix-blend-mode:multiply" opacity=".5" fill="#000"><path d="M56.067 87.386H45.06c0-.432-.101-.847-.101-1.21V58.521a2.075 2.075 0 011.066-1.99 3112.29 3112.29 0 0020.177-13.444 1.55 1.55 0 012.04 0c6.774 4.546 13.547 9.034 20.27 13.546a2.26 2.26 0 01.948 1.533c.05 9.576 0 19.152 0 28.736-.02.14-.05.28-.093.415h-10.55c-1.117-2.057-1.77-4.428-3.327-5.867-1.922-1.804-2.184-3.666-2.117-5.978.11-3.505 0-7.01 0-10.507 0-1.169 0-2.16-1.54-2.37a1.424 1.424 0 01-.847-1.085c0-.39.406-.846.753-1.185.474-.449 1.499-.762 1.516-1.177.059-1.22.127-2.726-.517-3.632a40.068 40.068 0 00-4.47-4.674 1.27 1.27 0 00-2.024 0c-1.575 1.558-3.192 3.074-4.69 4.7a2.946 2.946 0 00-.525 1.828c-.034 6.852-.034 13.702 0 20.549a2.633 2.633 0 01-1.033 2.362 11.397 11.397 0 00-3.929 7.104z" opacity=".5"/><path d="M67.235 53.188c1.194 1.245 2.193 2.295 3.2 3.328.686.703.686 1.194-.211 1.82-2.151 1.524-2.363 4.149-.576 5.825 1.44 1.355 1.44 1.355.847 3.023l-1.99 1.761 2.049 1.575.322-.296v2.235l-.305-.28-2.058 1.575 1.982 1.77.465-.339c0 1.33.06 2.659 0 3.988a2.616 2.616 0 001.304 2.54 8.467 8.467 0 013.09 10 8.687 8.687 0 01-8.898 5.579 8.552 8.552 0 01-7.713-7.104 8.255 8.255 0 013.615-8.602 2.54 2.54 0 001.143-2.294V58.895a3.683 3.683 0 011.338-3.217 32.792 32.792 0 002.396-2.49zm2.447 35.417a2.463 2.463 0 10-2.362 2.54 2.498 2.498 0 002.362-2.54z" opacity=".5"/><path d="M96.403 56.076l-1.295 1.938c-.56-.364-1.076-.668-1.575-.999-8.18-5.46-16.375-10.888-24.554-16.4a2.71 2.71 0 00-3.573 0c-8.052 5.461-16.172 10.83-24.266 16.223-.593.398-1.202.779-1.905 1.236l-1.363-2.007c3.97-2.658 7.849-5.266 11.659-7.806 5.503-3.683 11.066-7.35 16.578-11.007a1.558 1.558 0 012.049-.152A5724.884 5724.884 0 0095.75 55.568a6.3 6.3 0 01.652.508zM56.084 90.028l.982 3.47H38.871v-3.47h17.213zm39.506-.06v3.565H77.395l.99-3.565H95.59z" opacity=".5"/></g><path d="M48.87 77.784H37.864c0-.431-.11-.846-.11-1.21V48.92a2.083 2.083 0 011.075-1.99c6.74-4.453 13.462-8.935 20.168-13.445a1.558 1.558 0 012.049 0c6.773 4.547 13.547 9.034 20.27 13.547a2.244 2.244 0 01.939 1.533c.05 9.575 0 19.16 0 28.736-.019.14-.05.28-.093.415h-10.55c-1.109-2.058-1.786-4.428-3.327-5.868-1.922-1.803-2.176-3.666-2.108-5.977.11-3.505 0-7.002 0-10.508 0-1.16 0-2.159-1.55-2.37a1.44 1.44 0 01-.847-1.084c0-.381.415-.847.754-1.177.483-.449 1.507-.77 1.524-1.177.06-1.227.118-2.735-.517-3.64a40.15 40.15 0 00-4.478-4.674 1.263 1.263 0 00-2.016 0c-1.574 1.558-3.2 3.073-4.69 4.699a2.955 2.955 0 00-.533 1.829c-.034 6.846-.034 13.696 0 20.549a2.633 2.633 0 01-1.042 2.362 11.422 11.422 0 00-3.912 7.103z" fill="#E6DE21"/><path d="M60.03 43.596c1.202 1.244 2.192 2.286 3.2 3.319.694.702.686 1.193-.203 1.82-2.15 1.524-2.37 4.149-.584 5.825 1.447 1.355 1.447 1.355.846 3.023l-2.015 1.77 2.058 1.608.321-.288v2.235l-.313-.288-2.049 1.575 1.973 1.77.465-.339c0 1.33.068 2.659 0 3.988a2.617 2.617 0 001.304 2.54 8.467 8.467 0 013.09 9.974 8.678 8.678 0 01-8.856 5.563 8.543 8.543 0 01-7.713-7.104 8.246 8.246 0 013.573-8.62 2.481 2.481 0 001.194-2.294V49.277a3.734 3.734 0 011.338-3.218 29.616 29.616 0 002.37-2.463zm2.455 35.408a2.464 2.464 0 10-2.362 2.54 2.54 2.54 0 002.362-2.54z" fill="#E6DE21"/><path d="M89.206 46.474l-1.295 1.94c-.567-.356-1.076-.67-1.575-1-8.179-5.461-16.383-10.888-24.554-16.4a2.718 2.718 0 00-3.573 0c-8.052 5.461-16.171 10.829-24.266 16.222-.6.398-1.202.78-1.913 1.236l-1.355-2.006 11.659-7.807c5.52-3.683 11.058-7.349 16.578-11.006a1.54 1.54 0 012.049-.195c9.19 6.18 18.39 12.336 27.602 18.466.203.135.338.33.643.55zM48.879 80.435l.99 3.471H31.674v-3.471H48.88zm39.514-.06v3.556H70.19l.99-3.556h17.213z" fill="#E6DE21"/></svg>