<svg width="120" height="120" fill="none" xmlns="http://www.w3.org/2000/svg"><path d="M59.987 114.285c29.932 0 54.196-24.264 54.196-54.196S89.919 5.893 59.987 5.893c-29.931 0-54.196 24.264-54.196 54.196 0 29.931 24.265 54.196 54.196 54.196z" fill="#26792F"/><path d="M101.322 60.656v22.801a6.26 6.26 0 01-1.16.847c-5.08 1.947-10.11 3.86-15.164 5.783l-20.456 7.78a1.695 1.695 0 01-1.532 0 4402.139 4402.139 0 00-18.263-10.016 1.312 1.312 0 01-.745-1.303v-1.694c-1.058.153-2.032.322-3.023.415a2.396 2.396 0 01-1.27-.195c-1.981-1.032-3.937-2.133-5.927-3.2a1.338 1.338 0 01-.761-1.32v-17.46a1.329 1.329 0 01.846-1.354c1.93-.847 3.853-1.693 5.791-2.54.39-.143.806-.198 1.22-.161 1.007.068 2.006.212 3.082.33v-8.848a1.77 1.77 0 01.804-1.566 2731.77 2731.77 0 0018.043-12.802 1.457 1.457 0 011.693-.144c8.484 4.217 16.984 8.428 25.502 12.633a1.465 1.465 0 01.915 1.464v6.198a.753.753 0 00.643.847c2.887.847 5.774 1.744 8.645 2.667.412.221.789.504 1.117.838zm-32.267 24.3v9.466c0 .796.127.847.847.61 2.38-.907 4.758-1.83 7.154-2.718a.846.846 0 00.644-.923V75.058c0-.66-.229-.847-.847-.847-2.32.187-4.645.345-6.977.475-.643 0-.846.28-.846.897.034 3.158.025 6.266.025 9.373zm12.158-2.633v7.527c0 .686.161.804.796.567 1.558-.584 3.108-1.185 4.674-1.761a.72.72 0 00.525-.796V74.313c0-.533-.203-.711-.72-.669-1.481.11-2.963.229-4.453.297-.677 0-.847.33-.847.965.043 2.438.025 4.927.025 7.417zm-8.568-33.698v-3.463a1.033 1.033 0 00-.474-.745c-1.837-.847-3.692-1.626-5.546-2.422-.55-.228-.728-.101-.728.517v7.73a.846.846 0 00.474.66c1.83.602 3.675 1.16 5.52 1.694.61.186.754.059.754-.601.009-1.11 0-2.236 0-3.37zM65.872 62.9v3.793c0 .432.093.728.61.754 1.837.093 3.674.186 5.511.296.517 0 .66-.195.66-.66v-6.859a.652.652 0 00-.634-.762 192.058 192.058 0 01-5.36-.973c-.626-.119-.847.093-.796.677.026 1.245.009 2.49.009 3.734zm-4.776 16.417v-3.793c0-.44-.16-.652-.6-.694-1.152-.102-2.304-.204-3.447-.322-.449 0-.669.11-.669.584v6.858a.847.847 0 00.44.618c1.11.381 2.227.737 3.387 1.033.754.195.847.06.847-.753.05-1.177.042-2.354.042-3.531zm0-32.233v-3.802c0-.685-.211-.796-.846-.44-1.152.711-2.312 1.414-3.438 2.168a1.075 1.075 0 00-.432.787v6.663c0 .695.178.847.796.542 1.118-.482 2.219-.999 3.387-1.473a.779.779 0 00.567-.847c-.05-1.202-.034-2.421-.034-3.598zm0 16.087v-3.726c0-.533-.177-.736-.71-.592l-3.472.906a.635.635 0 00-.525.72V67.2c0 .517.203.72.728.669a70.052 70.052 0 013.251-.263c.56 0 .754-.279.737-.846-.034-1.228-.009-2.413-.009-3.624v.034zm15.867-12.7v3.065a.745.745 0 00.627.846c1.194.347 2.37.728 3.556 1.084.677.203.847.093.847-.644v-5.52a.847.847 0 00-.644-.94c-1.185-.49-2.354-1.024-3.54-1.524-.643-.28-.846-.169-.846.568-.008 1.007 0 2.032 0 3.048v.017zm4.996 14.393v-2.93c0-.363-.077-.643-.508-.719-1.262-.22-2.54-.44-3.785-.686-.559-.11-.711.136-.711.644v6.18c0 .542.228.746.745.77a97.83 97.83 0 013.513.255c.568.05.754-.186.746-.72-.017-.957 0-1.888 0-2.82v.026zM53.78 50.987v-3.192c0-.61-.228-.736-.736-.432-.847.491-1.635.99-2.422 1.533a.998.998 0 00-.356.694v5.664c0 .635.178.737.78.474.736-.313 1.456-.651 2.2-.956a.787.787 0 00.568-.847c-.05-.982-.034-1.956-.034-2.938zm0 26.916v-3.056c0-.508-.195-.712-.703-.737-.702 0-1.414-.119-2.116-.212-.517-.067-.729.119-.729.652v5.588a.66.66 0 00.56.762c.753.195 1.498.39 2.243.618.533.17.745 0 .737-.55-.009-1.025 0-2.04 0-3.073l.008.008zm0-13.547v-3.099c0-.39-.11-.669-.593-.542-.846.22-1.693.407-2.54.678a.846.846 0 00-.423.618v5.723c0 .508.229.66.703.61a31.63 31.63 0 012.184-.195c.491 0 .652-.237.644-.703 0-1.024.017-2.04.017-3.098l.008.008zm34.993-9.796v-2.455a1.049 1.049 0 00-.465-.754c-.847-.432-1.778-.779-2.676-1.168-.482-.212-.711-.077-.711.457v5.453a.846.846 0 00.432.618c.847.321 1.812.567 2.718.846.5.153.71 0 .702-.542-.017-.787-.008-1.608-.008-2.43l.008-.025zm-3.877 10.541v2.794c0 .364.127.585.524.601.906 0 1.812.085 2.727.153.474 0 .626-.203.626-.635v-4.92a.627.627 0 00-.6-.72c-.847-.135-1.694-.287-2.49-.43-.796-.145-.787-.077-.787.693 0 .77-.009 1.71-.009 2.49l.009-.026zM48.489 53.696v-2.59c0-.67-.237-.796-.846-.45-.61.348-1.11.661-1.626 1.042a.914.914 0 00-.364.627v4.995c0 .508.237.635.677.449.44-.186 1.093-.5 1.643-.72a.728.728 0 00.508-.846c.025-.788.034-1.635.034-2.481l-.026-.026zm0 23.2v-1.694c0-1.54 0-1.54-1.481-1.693l-.66-.068c-.492-.068-.695.135-.687.627v3.327c0 2.083 0 2.083 2.015 2.616.695.187.805.102.805-.643s.034-1.626.034-2.447l-.026-.026zm0-11.668v-2.6c0-.473-.186-.66-.652-.532a16.87 16.87 0 00-1.693.465.762.762 0 00-.415.559v5.08c0 .364.178.534.542.5.55-.043 1.1-.102 1.693-.127.593-.026.644-.263.627-.728-.085-.856-.076-1.72-.076-2.591l-.026-.026zm43.545 10.804v2.26c0 .508.22.678.711.568.491-.11 1.169-.254 1.761-.356a.542.542 0 00.534-.61v-4.233c0-.482-.229-.626-.67-.593-.44.034-1.1.11-1.692.11-.593 0-.695.255-.678.746.076.71.06 1.43.06 2.133l-.026-.025zm0-10.033v2.26c0 .339.068.618.491.644l1.93.118c.382 0 .576-.144.576-.541v-4.327c0-.39-.194-.55-.559-.601a25.684 25.684 0 01-1.76-.33c-.585-.136-.686.101-.686.575.042.762.034 1.49.034 2.244l-.026-.042zm4.335 9.508v1.99c0 .38.136.618.55.55a12.157 12.157 0 001.558-.33.77.77 0 00.415-.542v-3.852c0-.398-.186-.576-.567-.55-.381.025-.931.092-1.397.11-.466.016-.584.22-.576.626.051.694.042 1.355.042 2.023l-.025-.025zm0-8.966v1.024c0 1.837-.135 1.566 1.524 1.693h.339c.474.068.703-.11.686-.618V66.1c0-1.854 0-1.837-1.855-2.006-.5-.051-.71.101-.702.6.042.627.033 1.245.033 1.872l-.025-.025zm-56.837.262v-1.77c0-.465-.161-.728-.695-.55-.378.12-.762.22-1.151.296a.6.6 0 00-.525.712v2.26c0 2.142 0 1.694 1.778 1.575a.55.55 0 00.593-.635v-1.888zm0 8.365v-.846c0-1.694 0-1.694-1.694-1.753-.483 0-.694.135-.677.626v2.261c0 1.694 0 1.694 1.642 2.05h.068c.466.118.669-.077.66-.543.017-.533.026-1.151.026-1.77l-.026-.025zm-3.514-7.73v-1.524c0-.474-.161-.72-.686-.542a3.43 3.43 0 01-.644.17.627.627 0 00-.584.728v2.718c0 .524.212.736.728.651.196-.036.394-.056.593-.059.423 0 .601-.203.593-.61-.009-.406.025-.998.025-1.507l-.025-.025zm0 7.078V73.18c0-.44-.153-.847-.745-.847-.18 0-.358-.017-.534-.05-.457-.06-.652.151-.643.6v2.803a1.1 1.1 0 00.49.652c.239.116.493.196.754.237.424.118.644 0 .644-.483l.034-1.575z" fill="#000" opacity=".5"/><path d="M94.117 51.055v22.8a5.485 5.485 0 01-1.151.848A5941.92 5941.92 0 0177.8 80.485l-20.455 7.79a1.693 1.693 0 01-1.533 0l-18.27-10.033a1.328 1.328 0 01-.745-1.304v-1.694c-1.059.153-2.04.33-3.023.415a2.371 2.371 0 01-1.27-.194c-1.99-1.033-3.937-2.134-5.927-3.2a1.337 1.337 0 01-.753-1.296V53.51a1.313 1.313 0 01.846-1.346c1.93-.847 3.844-1.693 5.792-2.54.39-.143.806-.198 1.219-.16 1.008.075 2.007.21 3.082.33v-8.84a1.745 1.745 0 01.804-1.575c6-4.239 12.012-8.515 18.035-12.827a1.456 1.456 0 011.693-.144c8.512 4.216 17.02 8.427 25.527 12.633a1.447 1.447 0 01.915 1.464v6.198a.754.754 0 00.643.847c2.887.846 5.775 1.744 8.645 2.667.405.22.774.504 1.092.838zm-32.267 24.3v9.465c0 .796.127.847.847.61 2.387-.906 4.766-1.829 7.154-2.718a.846.846 0 00.644-.923V65.457c0-.652-.238-.847-.847-.847a319.98 319.98 0 01-6.985.483c-.635 0-.847.27-.847.846.05 3.2.034 6.308.034 9.416zm12.167-2.634v7.527c0 .686.17.847.847.568 1.557-.585 3.107-1.186 4.665-1.761a.72.72 0 00.533-.796v-13.59c0-.533-.212-.71-.72-.668-1.49.11-2.971.228-4.453.296-.677 0-.847.33-.847.965-.008 2.472-.025 5.013-.025 7.46zm-8.569-33.698v-3.462a.998.998 0 00-.465-.745c-1.838-.847-3.7-1.626-5.555-2.422-.541-.229-.728-.102-.728.517v7.73a.915.915 0 00.474.66 165.52 165.52 0 005.53 1.693c.6.187.744.06.753-.6 0-1.101-.009-2.236-.009-3.37zm-6.773 14.318v3.793c0 .44.102.728.61.754 1.845.093 3.683.186 5.52.304.508 0 .66-.203.66-.669v-6.858a.66.66 0 00-.635-.762 229.353 229.353 0 01-5.368-.965c-.626-.127-.796.093-.787.669.008 1.194 0 2.447 0 3.734zM53.9 69.716v-3.793c0-.44-.17-.652-.61-.695a157.119 157.119 0 01-3.438-.322c-.448 0-.668.11-.668.585v6.858a.847.847 0 00.44.618c1.1.38 2.227.737 3.387 1.033.762.203.846.06.846-.754l.043-3.53zm0-32.233V33.68c0-.686-.22-.796-.805-.44-1.16.71-2.311 1.414-3.437 2.167a1.092 1.092 0 00-.432.788c-.042 2.226 0 4.445 0 6.663 0 .703.17.847.787.542 1.127-.483 2.227-1 3.387-1.473a.779.779 0 00.559-.847c-.085-1.202-.068-2.396-.068-3.598h.009zm0 16.087v-3.726c0-.533-.187-.736-.72-.593-1.151.305-2.312.619-3.463.906a.624.624 0 00-.525.72V57.6c0 .516.203.72.728.669a82.346 82.346 0 013.243-.263c.567 0 .754-.28.745-.847-.042-1.227-.017-2.421-.017-3.623l.009.033zm15.866-12.7v3.056a.762.762 0 00.635.846c1.186.34 2.371.72 3.556 1.076.67.203.847.093.847-.644v-5.52a.846.846 0 00-.635-.94c-1.185-.483-2.362-1.016-3.539-1.524-.652-.28-.847-.16-.847.567-.025 1.033-.025 2.05-.025 3.074l.008.008zm4.996 14.393v-2.921c0-.373-.085-.652-.508-.728-1.27-.22-2.54-.44-3.793-.686-.56-.11-.703.135-.703.643v6.181c0 .542.229.745.745.77 1.177.068 2.345.145 3.514.255.576.05.762-.187.753-.72-.025-.957-.017-1.888-.017-2.82l.009.026zM46.567 41.386v-3.192c0-.61-.237-.737-.745-.432-.846.491-1.634.99-2.413 1.532a.966.966 0 00-.355.695v5.664c0 .635.169.737.779.483.736-.314 1.456-.66 2.193-.957a.796.796 0 00.567-.847c-.026-.99-.026-1.998-.026-2.946zm0 26.916v-3.057c0-.508-.186-.711-.694-.736-.711 0-1.414-.119-2.117-.212-.525-.068-.736.127-.728.652v5.596a.652.652 0 00.55.754c.754.195 1.508.39 2.244.618.542.17.745 0 .745-.55v-3.065zm0-13.547v-3.108c0-.389-.101-.668-.584-.541-.846.22-1.693.406-2.54.677a.846.846 0 00-.423.618v5.724c0 .508.228.66.711.61.72-.085 1.448-.162 2.184-.196.492 0 .652-.237.644-.702.008-1.016.008-2.032.008-3.057v-.025zm34.994-9.77v-2.456a1.032 1.032 0 00-.474-.745c-.847-.44-1.779-.788-2.668-1.177-.482-.212-.71-.076-.71.465v5.445a.848.848 0 00.44.618c.846.322 1.811.576 2.717.846.492.153.703 0 .703-.541-.008-.813-.008-1.635-.008-2.456zm-3.878 10.54v2.794c0 .373.127.585.533.601.906 0 1.812.085 2.718.153.474 0 .635-.203.635-.635v-4.92a.628.628 0 00-.61-.71c-.846-.136-1.693-.297-2.48-.44-.788-.145-.788-.077-.796.694v2.463zM41.318 44.13v-2.6c0-.668-.237-.795-.847-.44-.61.356-1.109.652-1.625 1.033a.914.914 0 00-.356.627v4.995c0 .508.237.644.677.45.44-.196 1.084-.5 1.643-.72a.736.736 0 00.508-.847c-.017-.813 0-1.66 0-2.498zm0 23.199v-1.693c0-1.541 0-1.541-1.49-1.694-.22 0-.44 0-.66-.067-.483-.068-.686.135-.678.626v3.328c0 2.09 0 2.09 2.007 2.616.694.186.804.101.846-.644l-.025-2.472zm0-11.676v-2.59c0-.475-.186-.67-.652-.542-.572.126-1.137.281-1.693.465a.77.77 0 00-.424.56v5.08c0 .363.178.533.534.499l1.693-.127c.491 0 .644-.263.635-.728-.11-.881-.093-1.745-.093-2.617zm43.545 10.804v2.26c0 .517.22.678.703.568a29.6 29.6 0 011.76-.347.56.56 0 00.543-.618v-4.234c0-.482-.238-.626-.67-.592-.431.033-1.109.11-1.693.11-.584 0-.694.262-.686.753.06.678.043 1.389.043 2.1zm0-10.033v2.26c0 .34.067.618.49.644l1.931.118c.381 0 .576-.144.576-.541v-4.327c0-.39-.186-.542-.55-.601a24.757 24.757 0 01-1.761-.33c-.585-.136-.695.101-.686.584.008.728 0 1.465 0 2.193zm4.335 9.508v1.99c0 .38.144.618.55.55a11.877 11.877 0 001.558-.33.746.746 0 00.423-.542v-3.852c0-.398-.186-.576-.575-.542-.39.034-.923.084-1.389.101-.466.017-.584.22-.584.627.017.669.017 1.33.017 1.998zm0-8.966v.999c0 1.846-.127 1.575 1.532 1.693h.33c.483.06.703-.118.695-.626v-2.54c0-1.855 0-1.838-1.855-2.007-.49 0-.702.102-.694.601 0 .635-.017 1.253-.017 1.88h.009zm-56.83.27v-1.803c0-.465-.16-.72-.694-.55-.38.12-.768.218-1.16.296a.609.609 0 00-.525.711v2.261c0 2.142 0 1.651 1.77 1.575a.55.55 0 00.601-.635c-.005-.621-.005-1.24 0-1.854h.009zm0 8.357v-.796c0-1.693 0-1.693-1.693-1.76-.49 0-.694.135-.686.634v2.253c0 1.693 0 1.693 1.643 2.049h.068c.457.118.66-.077.66-.542-.008-.602 0-1.22 0-1.838h.009zm-3.513-7.721v-1.533c0-.474-.17-.72-.694-.533a5.17 5.17 0 01-.635.17.618.618 0 00-.593.719v2.718c0 .525.22.736.736.651a4.53 4.53 0 01.593-.059.517.517 0 00.593-.61c-.017-.507-.009-.973-.009-1.523h.009zm0 7.07v-1.338c0-.491-.161-.847-.745-.847a2.85 2.85 0 01-.534-.05c-.465-.06-.652.152-.652.609v2.794c.078.27.253.503.492.652.24.116.497.196.761.237.424.118.644 0 .644-.483l.034-1.575z" fill="#fff"/><path d="M61.816 113.641c29.932 0 54.196-24.264 54.196-54.196 0-29.931-24.264-54.196-54.196-54.196S7.62 29.514 7.62 59.445c0 29.932 24.264 54.196 54.196 54.196z" fill="#02763D"/><path d="M97.182 46.22a2.117 2.117 0 011.033 1.93v42.792a1.947 1.947 0 01-1.16 1.939 2724.603 2724.603 0 00-16.35 8.949 2.41 2.41 0 01-1.896.246L32.902 90.493c-1.253-.313-1.448-.559-1.448-1.829V51.14c0-1.278.127-1.456 1.346-1.854 3.98-1.312 7.968-2.607 11.947-3.937a2.659 2.659 0 011.99.06c2.59 1.092 5.207 2.133 7.925 3.234V43.35c0-1.033.211-1.32 1.194-1.642l20.735-6.774c.846-.288 1.735-.618 2.608-.931h.804L97.182 46.22zm-19.83 36.221c0-.643-.228-.846-.846-.889-2.362-.178-4.733-.398-7.095-.61-.847-.076-.906 0-.906.797v16.197a.788.788 0 00.703.914c2.463.593 4.91 1.219 7.366 1.837.643.161.77.051.77-.652v-8.864c0-2.938-.017-5.817.009-8.73zm-11.667-.957c0-.66-.22-.905-.846-.948a242.664 242.664 0 01-5.707-.474c-.508 0-.728.102-.728.652v14.791a.65.65 0 00.576.746 487.26 487.26 0 015.994 1.524c.652.169.711-.22.711-.695v-7.865c-.008-2.574-.025-5.157 0-7.73zm11.65-40.555c0-.686-.135-.78-.846-.585-2.447.695-4.894 1.414-7.35 2.083a.846.846 0 00-.685.948v7.62c0 .847.085.847.898.72l6.968-1.414c.965-.186.965-.195.965-1.151v-3.963c.06-1.422.06-2.853.05-4.258zm0 13.885c0-.754-.084-.847-.795-.728-2.472.398-4.945.847-7.417 1.194-.423.067-.627.237-.618.686v7.992c0 .517.212.711.728.67 2.444-.21 4.897-.41 7.358-.602.567-.042.77-.262.762-.847v-4.233c0-1.431-.009-2.735-.017-4.132zm0 13.835c0-.593-.16-.847-.795-.847a431.5 431.5 0 01-7.392.28c-.482 0-.66.228-.66.702v7.934c0 .525.212.694.711.71 2.45.103 4.891.215 7.324.34.567 0 .847-.144.847-.737v-4.233c0-1.389-.051-2.778-.017-4.15h-.017zM53.477 55.034c0-.61-.203-.796-.796-.669a193.81 193.81 0 01-4.428.898.668.668 0 00-.626.77v9.585c0 .474.186.694.677.652 1.499-.119 3.006-.237 4.513-.339.5 0 .669-.296.66-.787v-5.08c0-1.694-.025-3.336 0-5.03zm0 14.614c0-.89 0-.923-.956-.898-1.372.051-2.744.119-4.124.144-.525 0-.762.204-.762.745v9.517a.661.661 0 00.694.77c1.5.12 3.006.246 4.505.382.508.042.652-.204.652-.678v-5.08l-.009-4.902zM65.686 44.4c0-.847-.145-.914-.898-.694-1.897.533-3.793 1.092-5.698 1.617a.847.847 0 00-.67.923v6.934c0 .627.246.779.848.66 1.972-.415 3.954-.846 5.926-1.21.44-.085.55-.364.55-.762v-3.802l-.059-3.666zM58.42 64.67c0 .575.186.846.779.761 1.922-.177 3.852-.347 5.774-.482.534 0 .754-.237.745-.77v-7.536c0-.542-.177-.779-.753-.677-1.99.33-3.988.643-5.978.965-.44.068-.575.322-.567.745v6.993zm7.307 4.377c0-.618-.246-.847-.847-.788-1.925.09-3.852.17-5.783.237-.474 0-.677.195-.677.678v7.12c0 .491.203.678.66.703l5.986.271c.508 0 .652-.262.652-.703v-3.86c0-1.321-.05-2.43-.025-3.658h.034zM43.95 79.588c0-.627-.228-.847-.846-.914a69.959 69.959 0 01-3.252-.271c-.516-.06-.736.127-.736.651v11.6a.711.711 0 00.677.788c1.075.254 2.15.541 3.226.846.846.212.948.127.948-.72v-6.053a174.98 174.98 0 01-.017-5.927zM82 50.158a.762.762 0 00.491.846c1.524.66 3.04 1.346 4.564 2.015.567.246.796.102.846-.508v-7.46a1.033 1.033 0 00-.415-.744c-1.498-.982-3.03-1.922-4.563-2.862-.601-.373-.847-.237-.847.466v4.233c0 1.44-.06 2.659-.076 4.013zm0 40.14c0 .67.195.805.847.585 1.498-.542 2.988-1.118 4.496-1.694a.762.762 0 00.567-.846v-7.324c0-.55-.186-.78-.762-.66-1.428.287-2.865.57-4.31.846-.584.102-.846.339-.846.965.05 1.33 0 2.659 0 3.988 0 1.33 0 2.743.008 4.14zm0-26.856c0 .55.17.846.72.897 1.49.237 2.974.491 4.453.762.508.085.694-.118.694-.6v-7.46a.728.728 0 00-.575-.77l-4.445-1.567c-.67-.229-.847-.093-.847.618v4.123c0 1.372.025 2.667-.008 3.997H82zm0 13.487c0 .534.186.728.711.678 1.524-.161 3.048-.297 4.572-.44.415 0 .576-.263.576-.661v-7.527a.56.56 0 00-.593-.635c-1.507-.11-3.014-.237-4.513-.381-.567-.05-.761.16-.753.711v4.132c0 1.38.017 2.752 0 4.123zm-43.9 2.092c0-.55-.153-.847-.737-.847a60.772 60.772 0 01-2.786-.229c-.482-.05-.702.11-.71.61 0 3.601-.038 7.197-.11 10.787a.6.6 0 00.558.677c.999.237 1.981.508 2.972.754.669.16.796.059.796-.627V84.55c-.034-1.845-.051-3.691.017-5.528zm1.024-3.666c0 .524.17.77.728.778 1.11 0 2.218.077 3.32.144.541 0 .778-.144.778-.702v-5.792c0-.516-.22-.71-.728-.685-1.11.05-2.218.101-3.327.118-.568 0-.78.254-.762.847v2.658c0 .89.008 1.787-.009 2.633zm4.81-24.893c0-.533-.212-.728-.746-.567-1.168.347-2.345.686-3.522 1.007a.644.644 0 00-.542.712v5.605c0 .49.212.685.711.575 1.126-.245 2.253-.5 3.387-.694.576-.093.72-.38.711-.906V53.4c0-.931-.008-1.956 0-2.938zm0 9.72c0-.576-.187-.847-.805-.677-1.126.22-2.27.398-3.387.558a.627.627 0 00-.61.712v5.529c0 .465.187.685.686.643a98.442 98.442 0 013.523-.28c.465 0 .6-.27.6-.694v-2.997c0-.999-.016-1.863 0-2.794h-.008zm47.244 4.885c0 .508.152.78.677.847.94.135 1.88.296 2.82.474.525.093.728-.101.728-.626v-6.054a.729.729 0 00-.559-.788c-.965-.321-1.913-.668-2.879-.99-.61-.203-.77-.093-.77.542v3.386c0 1.127.025 2.143-.008 3.21h-.009zm0-10.837a.77.77 0 00.508.847c.974.414 1.939.846 2.913 1.287.575.245.779.118.787-.517v-6.122a1.034 1.034 0 00-.423-.728c-.94-.635-1.905-1.219-2.87-1.803-.661-.406-.847-.296-.89.466v3.327c0 1.11.009 2.16-.016 3.243h-.009zm0 32.716c0 .626.195.77.779.567.982-.347 1.964-.686 2.921-1.1a1 1 0 00.483-.729V79.63c0-.567-.212-.745-.78-.618-.93.203-1.87.373-2.81.525a.642.642 0 00-.627.754v3.327c0 1.11.043 2.219.05 3.328h-.016zm0-10.872c0 .44.135.695.61.652.99-.093 1.99-.203 2.98-.288a.593.593 0 00.618-.694v-6.07c0-.466-.186-.695-.652-.72-.982-.068-1.956-.144-2.93-.229-.465 0-.635.16-.626.618v3.387c0 1.117.025 2.235.017 3.344h-.017zm-53.13-23.91c0-.55-.228-.728-.736-.584-.982.28-1.956.567-2.938.846a.643.643 0 00-.542.703v5.19c0 .517.246.66.712.56.956-.204 1.905-.424 2.861-.585.508-.085.66-.339.644-.847V54.79c0-.89-.017-1.745 0-2.625zm0 8.907c0-.516-.169-.728-.719-.618-.965.186-1.93.322-2.895.466a.603.603 0 00-.602.702v5.131c0 .5.203.67.686.627a105.5 105.5 0 012.854-.22c.508 0 .694-.263.677-.762V63.73c0-.89-.009-1.77 0-2.659zm0 8.907c0-.474-.185-.694-.676-.669-.991.051-1.99.085-2.99.127-.38 0-.55.212-.55.593v5.25c0 .423.203.584.61.6.999 0 1.99.077 2.989.127.474 0 .618-.211.618-.643v-2.726c0-.915-.009-1.77 0-2.659z" fill="#000" opacity=".5"/><path d="M89.977 36.619a2.109 2.109 0 01.99 1.939V81.34a1.914 1.914 0 01-1.16 1.939 2288.306 2288.306 0 00-16.34 8.957 2.457 2.457 0 01-1.906.237 51148.57 51148.57 0 00-45.864-11.582c-1.245-.313-1.44-.559-1.44-1.829V41.538c0-1.278.136-1.456 1.355-1.854 3.98-1.304 7.959-2.616 11.938-3.937a2.65 2.65 0 011.99.06c2.6 1.091 5.207 2.133 7.933 3.233v-5.29c0-1.033.204-1.313 1.194-1.643l20.727-6.773c.847-.288 1.744-.618 2.616-.932h.804A6610.867 6610.867 0 0189.977 36.62zm-19.83 36.195c0-.634-.22-.846-.846-.846-2.37-.178-4.733-.398-7.104-.61-.847-.076-.897 0-.897.796v16.197a.795.795 0 00.71.915c2.456.592 4.903 1.227 7.358 1.837.644.16.78.05.78-.652v-8.882c-.009-2.904-.026-5.817 0-8.755zm-11.658-.93c0-.653-.229-.907-.847-.95a243.195 243.195 0 01-5.707-.473c-.516 0-.736.11-.728.652v14.791a.652.652 0 00.568.745c2.003.503 4.004 1.01 6.003 1.524.651.17.71-.22.71-.694v-7.866c0-2.624-.067-5.105 0-7.73zm11.65-40.557c0-.677-.135-.779-.847-.584-2.404.694-4.86 1.43-7.315 2.091a.797.797 0 00-.677.94v7.62c0 .847.093.847.897.72l6.977-1.406c.956-.194.956-.203.956-1.16v-3.987c.009-1.398.017-2.811.009-4.234zm0 13.886c0-.745-.085-.847-.796-.72-2.472.39-4.945.847-7.417 1.185-.432.068-.626.238-.626.686v7.993c0 .516.211.711.728.669 2.455-.21 4.91-.41 7.366-.601.567 0 .77-.254.753-.847v-4.234l-.008-4.131zm0 13.834c0-.592-.152-.846-.787-.846-2.464.11-4.928.194-7.4.28-.483 0-.66.228-.652.694v7.933c0 .525.22.694.72.711 2.438.102 4.885.212 7.323.339.567 0 .847-.136.804-.737v-4.233c0-1.389-.025-2.769 0-4.14h-.008zm-23.86-13.614c0-.61-.211-.796-.804-.669a193.12 193.12 0 01-4.42.897.669.669 0 00-.626.77v9.585c0 .474.178.695.669.652 1.507-.118 3.014-.237 4.513-.338.508 0 .669-.297.669-.788v-5.08c0-1.693-.026-3.344 0-5.03zm0 14.614c0-.847 0-.923-.956-.847-1.372 0-2.752.11-4.123.135-.534 0-.763.212-.763.754v9.508c0 .5.195.728.695.77l4.504.382c.508 0 .652-.204.643-.678V60.047zM58.48 34.799c0-.847-.135-.915-.846-.695-1.906.534-3.794 1.093-5.699 1.617a.847.847 0 00-.71.923v6.935c0 .635.245.779.846.66 1.981-.406 3.954-.847 5.927-1.202.448-.093.558-.373.558-.77v-3.802c0-1.262-.067-2.439-.076-3.667zm-7.298 20.278c0 .567.195.846.787.753a260.58 260.58 0 015.775-.483c.533 0 .745-.237.745-.77v-7.535c0-.542-.187-.77-.754-.678-1.99.33-3.988.644-5.986.965-.432.068-.567.322-.559.745v3.531c0 1.177.017 2.312-.008 3.472zm7.307 4.368c0-.618-.237-.846-.847-.787-1.93.09-3.858.17-5.783.237-.474 0-.677.195-.677.677v7.121c0 .491.203.677.66.703l5.986.27c.5 0 .652-.253.644-.702v-3.86c.008-1.22-.009-2.44.017-3.659zM36.746 69.97c0-.627-.22-.847-.847-.915a69.954 69.954 0 01-3.251-.27c-.517-.06-.737.126-.737.651v11.6a.709.709 0 00.644.779c1.075.262 2.15.542 3.226.846.846.204.94.119.948-.72v-6.036c.008-1.981-.017-3.937.017-5.935zm38.05-29.414a.78.78 0 00.5.847c1.523.66 3.039 1.346 4.563 2.015.567.245.796.101.796-.508v-7.46a1.094 1.094 0 00-.415-.745 256.571 256.571 0 00-4.564-2.861c-.6-.373-.846-.237-.846.465v4.234c0 1.43-.017 2.658-.034 4.013zm0 40.141c0 .669.186.847.846.584 1.499-.542 2.99-1.109 4.496-1.642a.77.77 0 00.568-.847v-7.324c0-.55-.187-.77-.754-.66-1.44.288-2.87.567-4.318.846-.584.102-.847.34-.847.966v3.988c0 1.329.009 2.709.017 4.09h-.008zm0-26.857c0 .55.17.847.711.906 1.49.229 2.98.491 4.462.754.508.093.694-.119.694-.601v-7.46a.728.728 0 00-.575-.77c-1.482-.516-2.964-1.05-4.454-1.558-.66-.237-.847-.101-.847.61v4.132c0 1.38.043 2.641.009 3.987zm0 13.496c0 .525.194.72.711.67 1.524-.162 3.056-.297 4.58-.44.407 0 .576-.255.576-.661v-7.527a.558.558 0 00-.6-.635 203 203 0 01-4.514-.381c-.559-.051-.762.16-.753.71v4.133c0 1.38.025 2.751 0 4.132zm-43.943 2.092c0-.542-.152-.847-.737-.847a62.809 62.809 0 01-2.785-.228c-.483-.051-.694.11-.703.61-.034 3.6-.073 7.199-.118 10.794 0 .415.186.584.567.678.99.228 1.973.5 2.963.745.678.16.847.059.847-.627v-5.596c0-1.863-.05-3.692-.034-5.53zm1.075-3.666c0 .516.161.762.729.77 1.1 0 2.21.076 3.318.144.542.042.78-.144.77-.703v-5.791c0-.508-.22-.711-.727-.686-1.11.051-2.218.102-3.328.119-.567 0-.787.254-.77.846v2.659c0 .889.025 1.744.008 2.633v.009zm4.81-24.893c0-.525-.212-.728-.754-.567-1.169.347-2.337.686-3.514 1.008a.652.652 0 00-.542.71v5.606c0 .49.212.686.711.576 1.127-.246 2.253-.5 3.387-.695.567-.093.72-.38.703-.906v-2.794c0-.931 0-1.964.008-2.946v.008zm0 9.72c0-.576-.178-.846-.796-.677a83.29 83.29 0 01-3.387.567.608.608 0 00-.61.703v5.529c0 .465.195.685.694.643a126.23 126.23 0 013.514-.28c.466 0 .61-.27.61-.694v-2.988c0-.991-.042-1.88-.026-2.811v.008zm47.253 4.877c0 .517.152.779.677.847.94.135 1.88.296 2.811.474.533.093.737-.102.737-.627v-6.053a.728.728 0 00-.56-.788c-.964-.313-1.921-.669-2.886-.99-.602-.204-.762-.094-.77.55v3.387c0 1.134.016 2.133-.01 3.2zm0-10.829a.753.753 0 00.5.847c.981.414 1.938.846 2.92 1.287.576.254.78.127.78-.517v-6.121a1.066 1.066 0 00-.433-.729c-.93-.635-1.905-1.219-2.861-1.803-.67-.406-.847-.296-.89.474v3.328c0 1.109 0 2.142-.016 3.234zm0 32.707c0 .635.194.77.77.568.982-.348 1.973-.686 2.921-1.101a.974.974 0 00.483-.728v-6.054c0-.559-.22-.745-.78-.618a52.96 52.96 0 01-2.81.525.642.642 0 00-.627.762v3.319c0 1.109.043 2.184.051 3.327h-.008zm0-10.863c0 .432.144.686.61.644.998-.093 1.989-.203 2.988-.288a.592.592 0 00.61-.694V60.08c0-.474-.195-.702-.66-.728l-2.871-.22c-.466 0-.643.161-.635.61v3.387c0 1.117-.025 2.235-.042 3.352zM30.853 42.563c0-.55-.229-.729-.745-.585l-2.93.847a.635.635 0 00-.55.703v5.181c0 .517.237.66.711.56.949-.204 1.905-.424 2.862-.585.508-.085.652-.33.644-.847V45.18c0-.88-.009-1.736.008-2.616zm0 8.907c0-.517-.17-.728-.728-.618-.957.186-1.922.321-2.887.465a.609.609 0 00-.61.703v5.13c0 .5.212.67.694.627.949-.084 1.897-.16 2.854-.22.5 0 .694-.262.677-.762v-2.658c0-.88-.017-1.778 0-2.667zm0 8.907c0-.474-.186-.695-.677-.67-1 .052-1.99.094-2.99.128-.389 0-.55.212-.55.593v5.249c0 .423.204.584.61.601.99 0 1.99.076 2.989.136.474 0 .618-.22.618-.652v-2.727c0-.914-.017-1.77 0-2.658z" fill="#E6DE21"/></svg>