<svg width="120" height="120" fill="none" xmlns="http://www.w3.org/2000/svg"><path d="M58.125 115.436c29.931 0 54.196-24.264 54.196-54.196 0-29.931-24.265-54.196-54.196-54.196-29.932 0-54.196 24.265-54.196 54.196 0 29.932 24.264 54.196 54.196 54.196z" fill="#02763D"/><g style="mix-blend-mode:multiply" opacity=".5" fill="#000"><path d="M63.323 31.073c.542.644 1.075 1.304 1.643 1.93 8.23 9.196 16.465 18.385 24.706 27.569l.457.55a17.968 17.968 0 00-2.447 0c-1.82.28-2.997-.466-4.233-1.837-6.401-7.299-12.904-14.504-19.39-21.752l-.787-.846-6.63 7.34a8653.912 8653.912 0 00-15.062 16.63 1.236 1.236 0 01-1.04.473h-4.43c.213-.254.331-.406.458-.55 2.32-2.582 4.64-5.156 6.934-7.756.247-.298.387-.67.398-1.058V38.439h8.145v4.818c.12-.079.236-.164.348-.254L63.12 31.149a.642.642 0 00.06-.11l.143.034zm-2.997 50.42c.358.271.732.523 1.118.754a17.687 17.687 0 008.983 1.98 23.19 23.19 0 0012.455-3.792 19.187 19.187 0 013.725-1.753 2.862 2.862 0 012.802.33 2.54 2.54 0 01.043 3.996 105.7 105.7 0 01-5.665 4.852 75.98 75.98 0 01-9.508 6.41 16.731 16.731 0 01-11.32 1.854c-5.266-.788-10.414-2.075-15.604-3.2-1.058-.23-2.117-.441-3.192-.577a10.608 10.608 0 00-4.327.602c-1.261.355-2.54.779-3.818 1.185V77.945c0-.338 0-.626.432-.762 4.097-1.126 8.17-2.328 12.268-3.386a19.696 19.696 0 019.051 0 52.77 52.77 0 0111.21 3.928 5.15 5.15 0 011.338.847c.366.29.657.665.847 1.092.347.94.22 2.295-1.27 2.337a39.49 39.49 0 01-4.7-.186c-1.312-.11-2.607-.356-3.92-.525a6.35 6.35 0 00-.804 0l-.144.203z" opacity=".5"/><path d="M57.574 65.6v4.615c-4.834-1.016-9.466-.288-14.063 1.33v-7.324a1.38 1.38 0 01.305-.847c6.35-7.027 12.697-14.04 19.041-21.04.108-.164.201-.337.28-.517.262.33.381.5.516.66a10496.82 10496.82 0 0118.585 20.787c.202.236.316.536.322.847v11.853a.914.914 0 01-.271.694 22.014 22.014 0 01-6.994 3.438l-.457.093c-.39-3.327-2.684-4.928-5.436-6.096a.711.711 0 01-.541-.779v-7.62L57.574 65.6z" opacity=".5"/></g><path d="M56.118 21.472c.55.643 1.084 1.304 1.693 1.93 8.202 9.195 16.42 18.384 24.656 27.568.127.136.237.288.465.55a17.936 17.936 0 00-2.447 0c-1.82.28-3.005-.457-4.233-1.837-6.384-7.298-12.903-14.503-19.389-21.743l-.787-.846-6.63 7.298-15.07 16.663a1.218 1.218 0 01-1.034.474h-4.436l.465-.55c2.312-2.583 4.64-5.157 6.926-7.756.253-.296.397-.67.407-1.058V28.838h8.17v4.818c.12-.077.232-.161.339-.255l10.727-11.82a.33.33 0 00.051-.11h.127zm-2.998 50.42c.373.254.729.541 1.118.762a17.78 17.78 0 008.992 1.972 23.242 23.242 0 0012.455-3.767 19.13 19.13 0 013.717-1.753 2.897 2.897 0 012.81.322 2.54 2.54 0 010 3.996 109.185 109.185 0 01-5.655 4.86 77.54 77.54 0 01-9.475 6.384 16.781 16.781 0 01-11.32 1.846c-5.266-.788-10.414-2.075-15.604-3.2a37.283 37.283 0 00-3.192-.576 10.737 10.737 0 00-4.327.6c-1.27.356-2.54.78-3.818 1.186V68.353c0-.34-.05-.635.432-.762 4.09-1.135 8.162-2.337 12.268-3.387a19.66 19.66 0 019.043 0 53.135 53.135 0 0111.218 3.928 5.29 5.29 0 011.338.847c.365.292.655.666.847 1.092.338.94.22 2.295-1.27 2.346a43.62 43.62 0 01-4.7-.187c-1.303-.11-2.607-.364-3.911-.533a6.361 6.361 0 00-.847 0l-.118.195z" fill="#E6DE21"/><path d="M50.411 56v4.614c-4.834-1.016-9.465-.288-14.072 1.33 0-.314-.042-.5-.042-.687V54.62c.003-.307.107-.605.297-.846 6.35-7.028 12.703-14.047 19.058-21.057.113-.16.21-.33.288-.508.254.322.381.5.517.652a9858.953 9858.953 0 0118.584 20.786c.195.24.308.537.322.846v11.803a.939.939 0 01-.27.694 22.122 22.122 0 01-7.003 3.438l-.457.093c-.381-3.327-2.676-4.928-5.436-6.088a.72.72 0 01-.533-.787v-7.62L50.411 56z" fill="#E6DE21"/></svg>