<svg width="17" height="17" fill="none" xmlns="http://www.w3.org/2000/svg"><path d="M12.427 12.664s-5.306-3.208-5.65-5.475c-.13-.77-.864-3.55 2.932-6.288C9.666.816 2.42 2.741.737 5.307c-.906.898-.992 2.352-.173 3.336.432.556.993 1.027 1.683 1.283 1.811.727 6.255 2.395 10.18 2.738z" fill="#fff"/><path d="M7.121 6.077s.777-2.053 4.141-2.738c.95-.17 1.855-.47 2.718-.855.604-.342.906-1.027.733-1.668-.172-.513-.647-1.027-2.113-.727-.518.128-.993.3-1.424.513-1.294.684-4.055 2.395-4.055 5.475zM2.506 10.61s3.364 2.866 5.22 3.722c.129.085 4.658 2.908 6.513 2.652.604-.043 1.164-.385 1.553-.856.302-.342.431-.77.345-1.197-.087-.385-.389-.856-1.208-1.198-1.165-.385-2.33-.684-3.58-.813l-1.165-.128c-1.812-.342-6.125-1.326-7.678-2.181z" fill="#fff"/></svg>