<svg width="281" height="259" fill="none" xmlns="http://www.w3.org/2000/svg"><path d="M280.968 129.579a123.225 123.225 0 01-18.131 63.561 8.533 8.533 0 01-3.923 3.971 8.603 8.603 0 01-5.553.71c-33.198-4.053-65.701-10.368-95.614-25.135a85.961 85.961 0 01-23.627-16.087c-15.162-15.301-14.783-31.765.916-46.626 11.087-10.525 24.922-16.872 39.357-22.37a318.571 318.571 0 0176.22-17.438c3.159-.377 6.318-.691 9.476-1.037a5.458 5.458 0 013.575.428 5.417 5.417 0 012.522 2.557 118.655 118.655 0 0114.245 47.631c.253 3.142.379 6.504.569 9.74M54 28v203c-66.02-44.294-77.743-145.604 0-203zm41.095 15.205V12.394a6.483 6.483 0 011.368-4.686 6.557 6.557 0 014.259-2.424 143.375 143.375 0 0172.665-1.17c27.56 6.32 51.623 18.234 70.727 37.922 1.208 1.232 3.497 2.623 2.734 4.171-.763 1.548-3.179.443-4.927.474a380.361 380.361 0 00-93.518 12.04 221.645 221.645 0 00-45.838 17.981c-.89.474-1.748.98-2.638 1.39C96.271 79.8 95 79.2 95 75.439V43.205m1.66 144.985c6.285 3.171 12.728 6.342 19.264 9.196a271.988 271.988 0 0079.917 21.087 436.296 436.296 0 0037.932 2.79c1.1 0 2.734-.603 3.143 1.046.408 1.649-.755 1.84-1.603 2.537-19.018 15.982-41.711 26.886-65.995 31.709a159.628 159.628 0 01-69.798-3.171c-2.169-.57-3.52-1.68-3.52-3.932 0-20.399.084-40.778.251-61.135 0 0 .157 0 .409-.317" fill="#F3F4F8"/><path d="M96 133.479v49.093c0 1.234 0 2.374-1.319 3.165a2.675 2.675 0 01-2.895-.38c-11.196-7.66-21.394-16.143-27.957-27.664-11.936-20.954-8.14-42.921 10.713-60.867a88.708 88.708 0 0118.24-14.022C95.26 81.443 96 81.696 96 84.45v49.124-.095z" fill="#F3F4F8"/></svg>