<svg width="41" height="37" fill="none" xmlns="http://www.w3.org/2000/svg"><path d="M10.568 20.888c1.632.48 2.88 1.392 3.744 2.736.96 1.248 1.44 2.784 1.44 4.608 0 2.304-.72 4.176-2.16 5.616-1.44 1.44-3.216 2.16-5.328 2.16-2.304 0-4.176-.72-5.616-2.16C1.304 32.312.632 30.44.632 28.232c0-1.152.096-2.256.288-3.312.288-1.152.816-2.784 1.584-4.896L8.552.152h6.912l-4.896 20.736zm24.48 0c1.632.48 2.88 1.392 3.744 2.736.96 1.248 1.44 2.784 1.44 4.608 0 2.304-.72 4.176-2.16 5.616-1.44 1.44-3.216 2.16-5.328 2.16-2.304 0-4.176-.72-5.616-2.16-1.344-1.536-2.016-3.408-2.016-5.616 0-1.152.096-2.256.288-3.312.288-1.152.816-2.784 1.584-4.896L33.032.152h6.912l-4.896 20.736z" fill="#fff"/></svg>