<svg width="29" height="29" fill="none" xmlns="http://www.w3.org/2000/svg"><path d="M14.5 2C9.8 2 6 5.912 6 10.75c0 2.175.607 4.213 1.712 6.05 1.154 1.925 2.672 3.575 3.837 5.5.571.938.984 1.813 1.421 2.825.316.688.57 1.875 1.53 1.875.96 0 1.214-1.188 1.518-1.875.45-1.012.85-1.887 1.42-2.825 1.166-1.913 2.684-3.563 3.838-5.5C22.393 14.962 23 12.925 23 10.75 23 5.912 19.2 2 14.5 2zm0 12.188c-1.676 0-3.036-1.4-3.036-3.126 0-1.724 1.36-3.124 3.036-3.124s3.036 1.4 3.036 3.125c0 1.724-1.36 3.124-3.036 3.124z" fill="#323232"/></svg>