<svg width="297" height="77" fill="none" xmlns="http://www.w3.org/2000/svg"><path d="M83.458 38.495a36.969 36.969 0 01-5.39 18.995 2.544 2.544 0 01-2.818 1.399c-9.87-1.212-19.533-3.099-28.426-7.512a25.552 25.552 0 01-7.025-4.807c-4.508-4.572-4.395-9.492.272-13.933 3.297-3.146 7.41-5.042 11.702-6.685a94.3 94.3 0 0122.66-5.211c.94-.113 1.878-.207 2.817-.31a1.615 1.615 0 011.813.892 35.588 35.588 0 014.235 14.234c.075.939.113 1.943.17 2.91M15.965 8.281v60.372c-19.515-13.173-22.98-43.302 0-60.372zm12.424 4.554V3.681a1.934 1.934 0 011.662-2.113 42.127 42.127 0 0121.468-.347c8.142 1.878 15.251 5.417 20.895 11.267.357.366 1.033.779.808 1.239-.226.46-.94.131-1.456.14a111.773 111.773 0 00-27.628 3.578 65.256 65.256 0 00-13.542 5.343c-.263.14-.517.29-.78.413-1.08.507-1.455.328-1.455-.79v-9.576m.225 43.152c1.878.94 3.804 1.878 5.757 2.723a81.868 81.868 0 0023.881 6.244c3.757.438 7.535.713 11.335.826.329 0 .817-.178.94.31.121.488-.226.544-.48.751a44.14 44.14 0 01-19.72 9.39 48.128 48.128 0 01-20.858-.94c-.648-.169-1.052-.497-1.052-1.164 0-6.04.025-12.074.075-18.102 0 0 .047 0 .122-.094m-.169-16.262v14.563c0 .366 0 .704-.385.938a.77.77 0 01-.845-.112c-3.268-2.272-6.245-4.789-8.16-8.206-3.485-6.216-2.377-12.732 3.126-18.056a25.95 25.95 0 015.325-4.159c.723-.404.94-.329.94.488v14.572-.028zm77.974-20.365h-3.466V30.28h-6V3.418h6v10.76h2.743l7.127-10.76h7.316l-8.978 12.713 9.917 14.149h-7.156l-7.503-10.976zm34.183-3.061c0-2.816-.545-4.957-1.634-6.422a6.096 6.096 0 00-9.344 0c-1.099 1.446-1.644 3.568-1.662 6.357v1.314a10.733 10.733 0 001.662 6.357 6.029 6.029 0 004.677 2.279 6.042 6.042 0 004.714-2.204c1.083-1.453 1.628-3.578 1.634-6.376l-.047-1.305zm6.085 1.22a15.107 15.107 0 01-1.521 6.949 10.88 10.88 0 01-4.348 4.62 13.806 13.806 0 01-12.96 0 11.039 11.039 0 01-4.395-4.592 14.638 14.638 0 01-1.577-6.854v-1.305a14.949 14.949 0 011.549-6.986 10.923 10.923 0 014.376-4.6 13.771 13.771 0 0112.941 0 10.943 10.943 0 014.386 4.629 15.013 15.013 0 011.549 6.966v1.174zm12.199-14.045l7.485 19.482 7.447-19.482h7.879V30.28h-6.02v-7.342l.601-12.676-7.869 20.018h-4.114l-7.85-19.999.601 12.657v7.342h-6.001V3.418h7.841zm45.152 6.995V23.36h.404a6.222 6.222 0 004.63-1.7 6.361 6.361 0 001.69-4.694 6.719 6.719 0 00-1.662-4.76 6.237 6.237 0 00-4.761-1.756l-.301-.037zm-6.16 0a6.255 6.255 0 00-4.696 1.737 6.628 6.628 0 00-1.709 4.882 6.238 6.238 0 001.7 4.648 6.46 6.46 0 004.78 1.68h.3V10.413h-.375zm6.16-4.592h.366a13.573 13.573 0 016.189 1.39 10.275 10.275 0 014.311 3.953 11.172 11.172 0 011.54 5.83 10.22 10.22 0 01-3.353 7.906c-2.235 2.04-5.253 3.06-9.053 3.06v3.428h-5.775V27.96h-.385a13.82 13.82 0 01-6.273-1.38 10.194 10.194 0 01-4.311-3.86 10.633 10.633 0 01-1.531-5.69 11.053 11.053 0 011.559-5.764 10.473 10.473 0 014.283-3.981 13.238 13.238 0 016.122-1.465h.564V2.31h5.775l-.028 3.511zm34.193 10.422c0-2.816-.548-4.957-1.644-6.422a6.09 6.09 0 00-7.29-1.629 6.102 6.102 0 00-2.101 1.63c-1.089 1.445-1.64 3.564-1.652 6.356v1.314a10.796 10.796 0 001.634 6.385 5.474 5.474 0 004.695 2.263 5.414 5.414 0 004.639-2.188c1.077-1.452 1.625-3.577 1.644-6.375l.075-1.334zm6.076 1.22a15.116 15.116 0 01-1.512 6.949 10.903 10.903 0 01-4.358 4.62 13.786 13.786 0 01-12.95 0 10.994 10.994 0 01-4.404-4.592 14.639 14.639 0 01-1.578-6.854v-1.305c-.052-2.42.48-4.815 1.55-6.986a10.938 10.938 0 014.357-4.6 13.771 13.771 0 0112.941 0 10.921 10.921 0 014.376 4.629 15.027 15.027 0 011.55 6.966l.028 1.174zm10.368-1.126h5.362a5.56 5.56 0 003.625-1.033 3.638 3.638 0 001.258-2.957 4.23 4.23 0 00-1.268-3.193 4.902 4.902 0 00-3.493-1.248h-5.503l.019 8.431zm0 4.479v9.464h-6.001V3.418h11.363a13.972 13.972 0 015.756 1.108 8.633 8.633 0 013.832 3.145 8.278 8.278 0 011.343 4.638 7.44 7.44 0 01-2.93 6.225c-1.953 1.521-4.658 2.282-8.114 2.282h-5.249zm18.622-17.398v4.488h8.799V30.28h6.001V7.906H297V3.418h-23.731zM119.754 66.663a9.21 9.21 0 01-3.475 6.826 12.893 12.893 0 01-8.282 2.507c-3.757 0-6.696-1.162-8.819-3.484-2.122-2.322-3.192-5.502-3.211-9.54V61.33a15.02 15.02 0 011.484-6.826 10.518 10.518 0 014.225-4.535 14.174 14.174 0 0114.519.939 9.92 9.92 0 013.559 6.995h-6.001a5.384 5.384 0 00-1.568-3.756 6.16 6.16 0 00-4.113-1.164 5.255 5.255 0 00-4.489 1.98c-.996 1.322-1.506 3.372-1.531 6.15v1.982c0 2.904.476 5.026 1.428 6.366a5.158 5.158 0 004.517 2.009 6.292 6.292 0 004.15-1.164 5.086 5.086 0 001.606-3.643h6.001zm21.468-2.676h-11.523v7.192h13.523v4.45h-19.524V48.767h19.477v4.479h-13.476v6.403h11.523v4.338zm11.523-2.31h5.353a5.637 5.637 0 003.634-1.033 3.598 3.598 0 001.249-2.948 4.194 4.194 0 00-1.258-3.192 4.914 4.914 0 00-3.485-1.258h-5.493v8.431zm0 4.488v9.464h-6.001V48.758h11.354a14.2 14.2 0 015.775 1.108 8.711 8.711 0 013.832 3.145c.896 1.382 1.36 3 1.333 4.647a7.507 7.507 0 01-2.92 6.188c-1.954 1.521-4.658 2.282-8.114 2.282l-5.259.037zm26.426-2.235v7.249h5.137a5.27 5.27 0 003.315-.939 3.1 3.1 0 001.183-2.573c0-2.46-1.38-3.711-4.141-3.755l-5.494.019zm0-3.915h4.433c3.036-.05 4.551-1.164 4.545-3.342a2.96 2.96 0 00-1.146-2.62 6.385 6.385 0 00-3.634-.807h-4.198v6.77zM173.17 75.63V48.758h10.199c3.531 0 6.217.629 8.039 1.878a6.236 6.236 0 012.742 5.492 5.737 5.737 0 01-1.099 3.474 6.313 6.313 0 01-3.062 2.207 6.165 6.165 0 013.531 2.084 5.8 5.8 0 011.287 3.84 6.83 6.83 0 01-2.676 5.859c-1.785 1.333-4.339 2.01-7.645 2.037H173.17zm32.521-26.872h-6.001V75.62h6.001V48.758zm28.427 17.905a9.258 9.258 0 01-3.465 6.826 12.926 12.926 0 01-8.255 2.488c-3.757 0-6.693-1.161-8.809-3.484-2.116-2.322-3.193-5.495-3.23-9.52V61.33a15.014 15.014 0 011.474-6.826 10.533 10.533 0 014.235-4.535 14.158 14.158 0 0114.509.939 9.957 9.957 0 012.502 3.131 9.954 9.954 0 011.067 3.864h-5.945a5.387 5.387 0 00-1.577-3.756 6.144 6.144 0 00-4.113-1.164 5.255 5.255 0 00-4.489 1.98c-.986 1.325-1.503 3.372-1.531 6.15v1.982c0 2.904.479 5.026 1.437 6.366a5.138 5.138 0 004.507 2.009 6.273 6.273 0 004.151-1.164 5.094 5.094 0 001.531-3.643h6.001z" fill="#04714B"/></svg>