<svg width="159" height="42" fill="none" xmlns="http://www.w3.org/2000/svg"><path d="M44.678 20.611a19.833 19.833 0 01-2.886 10.171 1.362 1.362 0 01-1.508.75c-5.284-.65-10.457-1.66-15.218-4.023a13.576 13.576 0 01-3.76-2.574c-2.414-2.448-2.354-5.083.145-7.46 1.765-1.685 3.967-2.7 6.264-3.58a50.485 50.485 0 0112.132-2.79c.503-.061 1.005-.111 1.508-.167a.87.87 0 01.97.478 19.105 19.105 0 012.268 7.622c.04.503.06 1.04.09 1.558M8.545 4.433V36.76c-10.447-7.054-12.302-23.187 0-32.327zm6.652 2.438V1.97a1.035 1.035 0 01.89-1.131A22.624 22.624 0 0127.58.652c4.359 1.006 8.164 2.9 11.186 6.033.191.196.553.417.432.664-.12.246-.502.07-.779.075-4.99.02-9.96.664-14.791 1.916a34.76 34.76 0 00-7.25 2.86c-.14.076-.276.156-.417.222-.578.271-.78.175-.78-.423V6.871m.121 23.107a61.936 61.936 0 003.082 1.458 43.807 43.807 0 0012.785 3.343 70.05 70.05 0 006.069.442c.175 0 .437-.095.502.166.066.262-.12.292-.256.403a23.63 23.63 0 01-10.558 5.027 25.691 25.691 0 01-11.166-.502c-.347-.091-.563-.267-.563-.624 0-3.234.013-6.465.04-9.693.04-4.842.025 0 .065-.05m-.09-8.708v7.798c0 .196 0 .377-.206.503a.407.407 0 01-.453-.06c-1.75-1.218-3.343-2.565-4.369-4.395-1.865-3.328-1.272-6.817 1.674-9.668a13.916 13.916 0 012.851-2.227c.387-.216.503-.176.503.261v7.788z" fill="#E4DE1F"/><path d="M56.956 10.335H55.1v5.877h-3.212V1.828H55.1V7.59h1.468l3.816-5.762h3.917l-4.806 6.808 5.309 7.576h-3.831l-4.017-5.877zm18.3-1.639c0-1.508-.292-2.654-.875-3.439a3.268 3.268 0 00-4.6-.407 3.36 3.36 0 00-.402.407c-.589.775-.88 1.91-.89 3.404v.704c-.068 1.2.243 2.39.89 3.404a3.228 3.228 0 004.524.502c.185-.14.354-.3.503-.477.578-.775.87-1.916.875-3.414l-.025-.684zm3.258.654a8.135 8.135 0 01-.815 3.72 5.817 5.817 0 01-2.327 2.474 7.37 7.37 0 01-6.938 0 5.842 5.842 0 01-2.353-2.474 7.808 7.808 0 01-.845-3.67v-.684a7.979 7.979 0 01.83-3.74 5.827 5.827 0 012.342-2.464 7.38 7.38 0 016.928 0 5.908 5.908 0 012.348 2.479 8.13 8.13 0 01.83 3.73v.629zm6.531-7.522l4.007 10.433 3.986-10.433h4.219v14.384h-3.223v-3.931l.322-6.788-4.213 10.72H87.94l-4.203-10.71.322 6.778v3.931h-3.212V1.828h4.198zm24.172 3.746v6.933h.216a3.336 3.336 0 002.479-.91 3.428 3.428 0 00.905-2.514 3.622 3.622 0 00-.89-2.549 3.355 3.355 0 00-2.549-.94l-.161-.02zm-3.298 0a3.366 3.366 0 00-2.514.93 3.52 3.52 0 00-.915 2.615 3.32 3.32 0 00.91 2.489 3.454 3.454 0 002.559.9h.161V5.573h-.201zm3.298-2.458h.196a7.277 7.277 0 013.313.744 5.53 5.53 0 012.308 2.116c.553.947.838 2.026.824 3.122a5.483 5.483 0 01-1.794 4.234c-1.197 1.096-2.812 1.642-4.847 1.639v1.835h-3.092V14.97h-.206a7.39 7.39 0 01-3.358-.74 5.427 5.427 0 01-2.308-2.066 5.64 5.64 0 01-.82-3.046 5.907 5.907 0 01.835-3.087 5.58 5.58 0 012.293-2.132 7.127 7.127 0 013.278-.784h.301v-1.88h3.092l-.015 1.88zm18.305 5.58c0-1.508-.296-2.654-.879-3.439a3.27 3.27 0 00-2.208-1.168 3.262 3.262 0 00-2.82 1.168c-.583.775-.878 1.91-.885 3.404v.704a5.732 5.732 0 00.875 3.419 2.925 2.925 0 002.514 1.211 2.888 2.888 0 002.483-1.171c.574-.774.87-1.916.88-3.414l.04-.714zm3.253.654a8.13 8.13 0 01-.809 3.72 5.835 5.835 0 01-2.333 2.474 7.36 7.36 0 01-6.933 0 5.848 5.848 0 01-2.358-2.474 7.807 7.807 0 01-.845-3.67v-.684a8.051 8.051 0 01.83-3.74 5.86 5.86 0 012.333-2.464 7.378 7.378 0 016.928 0 5.864 5.864 0 012.343 2.479 8.127 8.127 0 01.829 3.73l.015.629zm5.551-.604h2.87a2.952 2.952 0 001.941-.553 1.952 1.952 0 00.674-1.584 2.274 2.274 0 00-.679-1.71 2.64 2.64 0 00-1.87-.667h-2.946l.01 4.514zm0 2.399v5.067h-3.213V1.83h6.083a7.54 7.54 0 013.082.593 4.694 4.694 0 012.052 1.684 4.49 4.49 0 01.719 2.484 3.999 3.999 0 01-1.569 3.333c-1.046.814-2.494 1.222-4.344 1.222h-2.81zm9.969-9.317v2.404h4.711v11.98h3.213V4.232H159V1.828h-12.705zM64.11 35.694a4.928 4.928 0 01-1.86 3.655 6.913 6.913 0 01-4.435 1.343c-2.01 0-3.584-.622-4.72-1.866-1.137-1.243-1.71-2.946-1.72-5.108v-.88a8.01 8.01 0 01.794-3.655 5.646 5.646 0 012.263-2.428 7.592 7.592 0 017.772.503 5.327 5.327 0 011.906 3.745h-3.213a2.926 2.926 0 00-.84-2.01 3.318 3.318 0 00-2.201-.624 2.806 2.806 0 00-2.404 1.06c-.532.71-.809 1.806-.82 3.294v1.06c0 1.56.252 2.695.765 3.41a2.75 2.75 0 002.418 1.075c.791.06 1.578-.16 2.223-.623a2.736 2.736 0 00.86-1.95h3.212zm11.493-1.433h-6.169v3.851h7.24v2.383H66.22V26.112h10.43v2.398h-7.215v3.428h6.169v2.323zm6.169-1.236h2.865c.693.045 1.38-.15 1.946-.553a1.931 1.931 0 00.669-1.58 2.249 2.249 0 00-.674-1.709 2.655 2.655 0 00-1.865-.673h-2.941v4.515zm0 2.403v5.068h-3.213v-14.39h6.078a7.597 7.597 0 013.092.594 4.69 4.69 0 012.052 1.684c.479.74.727 1.607.713 2.489a4.022 4.022 0 01-1.563 3.313c-1.046.814-2.494 1.222-4.344 1.222l-2.815.02zm14.148-1.197v3.881h2.75a2.831 2.831 0 001.774-.503 1.666 1.666 0 00.634-1.377c0-1.317-.74-1.988-2.218-2.011l-2.94.01zm0-2.096h2.372c1.626-.027 2.437-.624 2.434-1.79a1.603 1.603 0 00-.614-1.403 3.463 3.463 0 00-1.945-.432h-2.248v3.625zm-3.213 8.36V26.106h5.46c1.89 0 3.328.337 4.303 1.006a3.333 3.333 0 011.468 2.941 3.081 3.081 0 01-.588 1.86 3.365 3.365 0 01-1.639 1.182c.739.146 1.406.54 1.89 1.116.468.581.713 1.31.689 2.056a3.664 3.664 0 01-1.433 3.137c-.955.714-2.322 1.076-4.092 1.091h-6.058zm17.41-14.389h-3.213V40.49h3.213V26.106zm15.218 9.588a4.96 4.96 0 01-1.855 3.655 6.901 6.901 0 01-4.419 1.332c-2.011 0-3.583-.621-4.716-1.865-1.133-1.243-1.709-2.943-1.729-5.098v-.88a8.006 8.006 0 01.789-3.655 5.62 5.62 0 012.268-2.428 7.579 7.579 0 017.767.503 5.357 5.357 0 011.911 3.745h-3.183a2.901 2.901 0 00-.844-2.01 3.32 3.32 0 00-2.203-.624 2.805 2.805 0 00-2.403 1.06c-.503.71-.804 1.806-.819 3.294v1.06c0 1.56.256 2.695.769 3.41a2.752 2.752 0 002.413 1.075 3.37 3.37 0 002.222-.623 2.726 2.726 0 00.82-1.95h3.212z" fill="#fff"/></svg>